<svg width="18" height="18" viewBox="0 0 18 18" fill="none" xmlns="http://www.w3.org/2000/svg">
<path d="M9 9.00006C10.2375 9.00006 11.25 7.98756 11.25 6.75006C11.25 5.51256 10.2375 4.50006 9 4.50006C7.7625 4.50006 6.75 5.51256 6.75 6.75006C6.75 7.98756 7.7625 9.00006 9 9.00006ZM9 6.00006C9.4125 6.00006 9.75 6.33756 9.75 6.75006C9.75 7.16256 9.4125 7.50006 9 7.50006C8.5875 7.50006 8.25 7.16256 8.25 6.75006C8.25 6.33756 8.5875 6.00006 9 6.00006ZM13.5 12.4351C13.5 10.5601 10.5225 9.75006 9 9.75006C7.4775 9.75006 4.5 10.5601 4.5 12.4351V13.5001H13.5V12.4351ZM6.36 12.0001C6.915 11.6176 8.0325 11.2501 9 11.2501C9.9675 11.2501 11.085 11.6176 11.64 12.0001H6.36ZM14.25 2.25006H3.75C2.9175 2.25006 2.25 2.92506 2.25 3.75006V14.2501C2.25 15.0751 2.9175 15.7501 3.75 15.7501H14.25C15.075 15.7501 15.75 15.0751 15.75 14.2501V3.75006C15.75 2.92506 15.075 2.25006 14.25 2.25006ZM14.25 14.2501H3.75V3.75006H14.25V14.2501Z" fill="black" fill-opacity="0.5"/>
</svg>
