<svg width="60" height="40" viewBox="0 0 60 40" fill="none" xmlns="http://www.w3.org/2000/svg">
<g id="Lylo">
<path id="Vector" d="M14.9436 31.117C14.9436 29.022 14.9418 26.927 14.9463 24.832C14.9463 24.6859 14.9116 24.607 14.7675 24.5406C13.9304 24.157 13.177 23.6397 12.4779 23.0489C11.7022 22.3943 11.0502 21.6289 10.5148 20.7661C10.0469 20.0114 9.72488 19.1947 9.50873 18.3407C9.35129 17.7198 9.30948 17.0767 9.30948 16.4344C9.30948 14.1065 9.31037 11.7794 9.30859 9.45149C9.30859 8.79864 9.40288 8.15996 9.71154 7.57974C10.1999 6.66203 10.98 6.16508 12.0216 6.05967C12.8888 5.97197 13.7392 6.02246 14.5656 6.30947C15.5894 6.66557 16.2903 7.32817 16.5287 8.41419C16.5936 8.70828 16.6167 9.0068 16.6176 9.3071C16.6185 11.2922 16.6274 13.2774 16.6123 15.2634C16.6079 15.8666 16.599 16.4628 16.8356 17.0315C17.1024 17.6746 17.5623 18.0759 18.2686 18.1848C18.9223 18.2858 19.5219 18.1822 20.068 17.7933C20.5821 17.4283 20.8463 16.9172 20.9726 16.3202C21.066 15.879 21.0563 15.4317 21.0563 14.9843C21.0527 12.9859 21.026 10.9866 21.0643 8.9882C21.0785 8.24411 21.3702 7.56557 21.9057 6.99953C22.4777 6.3954 23.1857 6.13939 23.9881 6.05967C24.9443 5.96489 25.8765 6.02424 26.7802 6.38654C27.7631 6.77984 28.3555 7.61783 28.3564 8.67108C28.3582 11.1222 28.3431 13.5723 28.3644 16.0234C28.3724 16.9349 28.311 17.8296 28.0584 18.7048C27.74 19.8059 27.2223 20.8042 26.4689 21.6759C26.0891 22.1161 25.6995 22.5484 25.2734 22.9452C24.5404 23.6273 23.7265 24.1889 22.7881 24.5574C22.7027 24.5911 22.6485 24.6363 22.6636 24.7381C22.6707 24.7851 22.6645 24.8338 22.6645 24.8816C22.6645 28.9343 22.6618 32.9869 22.6689 37.0396C22.6698 37.3806 22.6342 37.7217 22.5435 38.0352C22.4528 38.3506 22.2784 38.6571 22.0365 38.9096C21.7661 39.1921 21.4725 39.4384 21.1167 39.6085C20.8712 39.7254 20.6133 39.798 20.35 39.8645C19.7327 40.0204 19.1029 40.0106 18.4794 39.9849C17.83 39.9593 17.1851 39.8344 16.5901 39.5659C16.0234 39.3099 15.536 38.9326 15.2309 38.3701C15.0192 37.9794 14.94 37.5569 14.9409 37.1122C14.9463 35.1147 14.9436 33.1154 14.9436 31.117Z" fill="white"/>
<path id="Vector_2" d="M49.3461 25.4313C46.4881 25.4118 44.0704 24.3638 42.1224 22.2919C40.5765 20.6487 39.711 18.6698 39.5411 16.4304C39.3267 13.6037 40.17 11.0978 42.0993 8.99924C44.0758 6.84846 46.5753 5.79521 49.484 5.83507C54.982 5.91214 59.2133 10.3182 59.2 15.6429C59.1849 21.2068 54.6422 25.4516 49.3461 25.4313ZM49.363 18.559C51.0041 18.559 52.3126 17.264 52.3144 15.6385C52.3161 14.005 50.9997 12.6896 49.3612 12.6887C47.7388 12.6878 46.4196 13.9926 46.4196 15.5986C46.4187 17.2719 47.6978 18.559 49.363 18.559Z" fill="white"/>
<path id="Vector_3" d="M30.5305 13.5389C30.5305 10.2737 30.5376 7.00947 30.5252 3.74433C30.5225 3.04807 30.631 2.39168 30.9815 1.78666C31.3444 1.1595 31.8461 0.66432 32.5061 0.360483C34.0032 -0.330459 35.6959 -0.0159919 36.7704 1.19936C37.2516 1.74414 37.5576 2.37662 37.6403 3.11185C37.6679 3.35811 37.6732 3.60171 37.6732 3.8462C37.675 10.4102 37.6795 16.9741 37.6706 23.5381C37.6688 25.1095 36.5836 26.4692 35.1035 26.8927C34.2184 27.146 33.3467 27.0929 32.5159 26.6978C31.8399 26.3762 31.3275 25.8616 30.9593 25.2123C30.6542 24.6755 30.5252 24.0979 30.527 23.4778C30.535 20.164 30.5305 16.851 30.5305 13.5389Z" fill="white"/>
<path id="Vector_4" d="M0.00358015 13.5079C0.00358015 10.2082 0.00891726 6.90855 2.22335e-05 3.60885C-0.00264627 2.77618 0.234851 2.03829 0.73653 1.37746C1.26578 0.680321 1.9676 0.248038 2.81975 0.0815036C3.81154 -0.112492 4.75086 0.0460705 5.59055 0.6316C6.44892 1.2313 6.97372 2.03917 7.11248 3.08799C7.14095 3.3059 7.1534 3.52204 7.1534 3.73996C7.15429 10.2915 7.1534 16.8431 7.15518 23.3955C7.15518 24.4168 6.81539 25.308 6.08333 26.0184C5.31747 26.7616 4.3826 27.0947 3.30363 27.03C2.52977 26.984 1.84752 26.7102 1.26756 26.2204C0.6289 25.68 0.209055 24.9962 0.0569503 24.1573C0.00980671 23.8986 0.00802777 23.6435 0.00802777 23.3875C0.00269075 20.0931 0.00358015 16.8005 0.00358015 13.5079Z" fill="white"/>
</g>
</svg>
