<svg width="20" height="20" viewBox="0 0 20 20" fill="none" xmlns="http://www.w3.org/2000/svg">
<path id="Union" fill-rule="evenodd" clip-rule="evenodd" d="M14.0419 0H5.95811C2.67279 0 0 2.67279 0 5.95811V14.0419C0 17.3272 2.67279 20 5.95811 20H14.0419C17.3272 20 20 17.3272 20 14.0419V5.95811C20 2.67279 17.3272 0 14.0419 0ZM17.988 14.0419C17.988 16.2213 16.2213 17.988 14.0419 17.988H5.95811C3.77875 17.988 2.012 16.2213 2.012 14.0419V5.95811C2.012 3.77871 3.77875 2.012 5.95811 2.012H14.0419C16.2213 2.012 17.988 3.77871 17.988 5.95811V14.0419ZM9.99988 4.82727C7.14764 4.82727 4.82717 7.14774 4.82717 9.99995C4.82717 12.8521 7.14764 15.1727 9.99988 15.1727C12.8521 15.1727 15.1726 12.8522 15.1726 9.99995C15.1726 7.14771 12.8521 4.82727 9.99988 4.82727ZM9.99988 13.1607C8.25425 13.1607 6.83917 11.7456 6.83917 9.99998C6.83917 8.25435 8.25429 6.83927 9.99988 6.83927C11.7455 6.83927 13.1606 8.25435 13.1606 9.99998C13.1606 11.7456 11.7455 13.1607 9.99988 13.1607ZM16.4222 4.8662C16.4222 5.55075 15.8673 6.10568 15.1827 6.10568C14.4982 6.10568 13.9432 5.55075 13.9432 4.8662C13.9432 4.18165 14.4982 3.62671 15.1827 3.62671C15.8673 3.62671 16.4222 4.18165 16.4222 4.8662Z" fill="white"/>
</svg>
