<svg width="16" height="16" viewBox="0 0 16 16" fill="none" xmlns="http://www.w3.org/2000/svg">
<path id="Shape" d="M3.65055 15.875H0.385162V5.35953H3.65055V15.875ZM2.0161 3.92512C0.971933 3.92512 0.125 3.06026 0.125 2.0161C0.125 0.971673 0.971673 0.125 2.0161 0.125C3.06052 0.125 3.90719 0.971673 3.90719 2.0161C3.90719 3.06026 3.05991 3.92512 2.0161 3.92512ZM15.8718 15.875H12.6135V10.7561C12.6135 9.53619 12.5889 7.9717 10.9157 7.9717C9.21801 7.9717 8.95785 9.29712 8.95785 10.6682V15.875H5.69598V5.35953H8.82777V6.79394H8.87348C9.30942 5.96775 10.3743 5.09585 11.9631 5.09585C15.2678 5.09585 15.8754 7.27207 15.8754 10.0987V15.875H15.8718Z" fill="white"/>
</svg>
