<svg width="18" height="18" viewBox="0 0 18 18" fill="none" xmlns="http://www.w3.org/2000/svg">
<path d="M14.625 8.25V3.75C14.625 2.925 13.95 2.25 13.125 2.25H12.375V0.75H10.875V2.25H4.875V0.75H3.375V2.25H2.625C1.8 2.25 1.125 2.925 1.125 3.75V14.25C1.125 15.075 1.8 15.75 2.625 15.75H7.875V14.25H2.625V6.75H13.125V8.25H14.625ZM13.125 5.25H2.625V3.75H13.125V5.25ZM10.605 14.25C10.9275 15.3375 11.9325 16.125 13.125 16.125C14.5725 16.125 15.75 14.9475 15.75 13.5C15.75 12.0525 14.5725 10.875 13.125 10.875C12.4125 10.875 11.76 11.16 11.2875 11.625H12.375V12.75H9.375V9.75H10.5V10.8225C11.175 10.1625 12.105 9.75 13.125 9.75C15.195 9.75 16.875 11.43 16.875 13.5C16.875 15.57 15.195 17.25 13.125 17.25C11.31 17.25 9.795 15.96 9.45 14.25H10.605Z" fill="black" fill-opacity="0.5"/>
</svg>
