<svg width="96" height="96" viewBox="0 0 96 96" fill="none" xmlns="http://www.w3.org/2000/svg">
<path d="M0 48C0 21.4903 21.4903 0 48 0C74.5097 0 96 21.4903 96 48C96 74.5097 74.5097 96 48 96C21.4903 96 0 74.5097 0 48Z" fill="black" fill-opacity="0.05"/>
<g clip-path="url(#clip0_14701_35813)">
<g clip-path="url(#clip1_14701_35813)">
<path d="M71.6815 38.5805L69.4484 30.2463C69.4058 30.0876 69.2427 29.9934 69.084 30.036L64.4862 31.2679C64.3275 31.3105 64.2333 31.4736 64.2758 31.6323L66.509 39.9665C66.5724 40.2032 66.8787 40.266 67.0302 40.0734L68.5927 38.0867C68.6743 37.9829 68.8145 37.9454 68.9371 37.9944L71.2836 38.9337C71.5111 39.0248 71.7449 38.8172 71.6815 38.5805Z" fill="#0062FF"/>
<path d="M61.7915 39.9669L64.0246 31.6327C64.0671 31.474 63.973 31.3108 63.8143 31.2683L59.2165 30.0363C59.0577 29.9938 58.8946 30.088 58.8521 30.2467L56.6189 38.5809C56.5555 38.8176 56.7894 39.0251 57.0169 38.9341L59.3634 37.9948C59.4859 37.9457 59.6262 37.9833 59.7078 38.0871L61.2703 40.0738C61.4217 40.2664 61.7281 40.2035 61.7915 39.9669Z" fill="#0062FF"/>
<path d="M58.1483 32.87L56.618 38.5811C56.5546 38.8178 56.7884 39.0253 57.0159 38.9343L59.3624 37.995C59.485 37.9459 59.6252 37.9835 59.7068 38.0873L60.5795 39.1969V32.87H58.1483Z" fill="white" fill-opacity="0.25"/>
<path d="M63.3572 18.2488C63.7863 17.7896 64.5145 17.7896 64.9437 18.2488L66.5459 19.9631C66.76 20.1922 67.0625 20.3175 67.3758 20.3069L69.721 20.2276C70.3492 20.2064 70.8641 20.7213 70.8428 21.3495L70.7636 23.6946C70.753 24.0079 70.8783 24.3105 71.1073 24.5246L72.8217 26.1268C73.2808 26.556 73.2809 27.2842 72.8217 27.7133L71.1073 29.3156C70.8783 29.5296 70.753 29.8322 70.7636 30.1455L70.8428 32.4907C70.8641 33.1188 70.3492 33.6337 69.721 33.6125L67.3758 33.5332C67.0625 33.5226 66.76 33.648 66.5459 33.877L64.9437 35.5913C64.5145 36.0505 63.7863 36.0505 63.3572 35.5913L61.7549 33.877C61.5409 33.648 61.2383 33.5226 60.925 33.5332L58.5798 33.6125C57.9517 33.6337 57.4368 33.1188 57.458 32.4907L57.5372 30.1455C57.5478 29.8322 57.4225 29.5296 57.1935 29.3156L55.4791 27.7133C55.02 27.2842 55.02 26.556 55.4791 26.1268L57.1935 24.5246C57.4225 24.3105 57.5478 24.0079 57.5372 23.6946L57.458 21.3495C57.4368 20.7213 57.9517 20.2064 58.5798 20.2276L60.925 20.3069C61.2383 20.3175 61.5409 20.1922 61.7549 19.9631L63.3572 18.2488Z" fill="#EF8B00"/>
<path d="M66.5652 33.8567C66.5587 33.8633 66.5523 33.87 66.5459 33.8768L64.9437 35.5911C64.5145 36.0503 63.7863 36.0503 63.3572 35.5911L61.7549 33.8768C61.5409 33.6478 61.2383 33.5224 60.925 33.533L58.5798 33.6123C57.9517 33.6335 57.4368 33.1186 57.458 32.4905L57.5372 30.1453C57.5478 29.832 57.4225 29.5294 57.1935 29.3154L55.4791 27.7131C55.02 27.2839 55.02 26.5558 55.4791 26.1266L57.1935 24.5244C57.4225 24.3103 57.5478 24.0077 57.5372 23.6944L57.458 21.3493C57.4368 20.7211 57.9517 20.2062 58.5798 20.2274L59.1666 20.2473C56.0495 27.0535 59.5887 32.9623 66.5652 33.8567Z" fill="white" fill-opacity="0.25"/>
<path d="M68.3154 26.92C68.3154 29.2203 66.4506 31.085 64.1504 31.085C61.8501 31.085 59.9854 29.2203 59.9854 26.92C59.9854 24.6197 61.8501 22.755 64.1504 22.755C66.4506 22.755 68.3154 24.6197 68.3154 26.92Z" fill="#FFCA40"/>
</g>
<path d="M51.5145 51.3668L61.5746 54.0624L59.478 61.8869L49.418 59.1913L51.5145 51.3668Z" fill="#F4C18F"/>
<path d="M66.2754 41.2L57.6592 56.7285L64.3146 59.1768L70.5254 42.9L66.2754 41.2Z" fill="#F4C18F"/>
<path d="M55.9245 52.0911L47.0999 49.343L44.7959 59.8657L54.044 62.3614L55.9245 52.0911Z" fill="#7EC9FF"/>
<g clip-path="url(#clip2_14701_35813)">
<path d="M68.2891 35.8327C70.4583 38.4508 70.0703 40.2307 69.5256 41.1554C68.4936 42.9073 65.4512 43.5653 65.3414 39.1029C65.3201 38.2389 65.4985 36.7372 65.6134 35.8743C65.6713 35.4397 65.6289 34.9971 65.4814 34.5842L64.9696 33.1515C64.9094 32.9833 64.961 32.7954 65.0986 32.6813L65.1291 32.656C65.3858 32.4432 65.7099 32.307 66.028 32.407C66.378 32.5172 66.8489 32.7784 67.2349 33.3946C67.9461 34.5301 68.2891 35.8327 68.2891 35.8327Z" fill="#F4C18F"/>
<path d="M69.4838 36.7747C69.1842 36.4132 69.2345 35.8773 69.596 35.5778L72.3777 33.273C72.7392 32.9735 73.275 33.0238 73.5745 33.3852C73.874 33.7467 73.8238 34.2826 73.4623 34.5821L70.6806 36.8869C70.3191 37.1864 69.7833 37.1361 69.4838 36.7747Z" fill="#F4C18F"/>
<path d="M70.4047 38.2194C70.1051 37.8579 70.1554 37.322 70.5169 37.0225L73.2986 34.7177C73.6601 34.4182 74.1959 34.4685 74.4954 34.8299C74.7949 35.1914 74.7447 35.7273 74.3832 36.0268L71.6015 38.3316C71.24 38.6311 70.7042 38.5808 70.4047 38.2194Z" fill="#F4C18F"/>
<path d="M71.4075 39.5962C71.108 39.2348 71.1582 38.6989 71.5197 38.3994L73.8924 36.4335C74.2538 36.134 74.7897 36.1843 75.0892 36.5458C75.3887 36.9072 75.3384 37.4431 74.977 37.7426L72.6043 39.7085C72.2428 40.008 71.707 39.9577 71.4075 39.5962Z" fill="#F4C18F"/>
<path d="M72.3081 40.8504C72.0273 40.5115 72.0746 40.009 72.4137 39.7284L74.458 38.0368C74.7952 37.7577 75.2945 37.8034 75.5755 38.139C75.8587 38.4772 75.8127 38.9812 75.4731 39.2626L73.4298 40.9556C73.091 41.2363 72.5888 41.1892 72.3081 40.8504Z" fill="#F4C18F"/>
<path d="M66.9773 37.7471L72.0498 33.5442L75.1497 39.5306L71.1801 42.8196L66.9773 37.7471Z" fill="#F4C18F"/>
<path d="M71.0982 42.8875C69.6975 44.0481 67.6211 43.8534 66.4605 42.4527C65.2999 41.0519 65.4946 38.9755 66.8954 37.8149C68.2961 36.6543 70.3725 36.849 71.5331 38.2498C72.6937 39.6505 72.499 41.7269 71.0982 42.8875Z" fill="#F4C18F"/>
</g>
<path d="M64.4606 58.1661C64.4606 60.3231 62.712 62.0717 60.555 62.0717C58.398 62.0717 56.6494 60.3231 56.6494 58.1661C56.6494 56.0091 58.398 54.2605 60.555 54.2605C62.712 54.2605 64.4606 56.0091 64.4606 58.1661Z" fill="#F4C18F"/>
<path d="M33.6417 73.1305H24.3748L17.119 57.2346C15.3699 53.4028 18.1705 49.0459 22.3827 49.0459H39.9791L33.6417 73.1305Z" fill="#37495E"/>
<path d="M45.7468 30.2457C45.7109 35.1891 45.7468 44.7912 37.9367 44.7912C31.2373 44.7912 28.4071 38.1053 28.4071 33.1619C28.4071 28.2186 31.2015 24.2 37.8293 24.2C42.7374 24.2 45.7826 27.0806 45.7468 30.2457Z" fill="#491F17"/>
<path d="M32.7424 50.3266C35.3084 53.5427 40.2915 53.5427 42.8574 50.3266V40.095H32.7424V50.3266Z" fill="#F4C18F"/>
<path d="M32.7424 50.3266C35.3084 53.5427 40.2915 53.5427 42.8574 50.3266V40.095H32.7424V50.3266Z" fill="url(#paint0_linear_14701_35813)"/>
<path d="M32.2008 40.0949C30.7044 40.0949 29.4914 38.8819 29.4914 37.3855C29.4914 35.8892 30.7044 34.6761 32.2008 34.6761C33.6971 34.6761 34.9102 35.8892 34.9102 37.3855C34.9102 38.8819 33.6971 40.0949 32.2008 40.0949Z" fill="#F4C18F"/>
<path d="M44.3439 29.2574H34.868C33.715 29.2574 32.7422 30.0935 32.7422 31.1387V39.8481C32.7422 43.1576 35.7688 45.8749 39.5159 45.8749H39.6961C43.4072 45.8749 46.4697 43.1576 46.4697 39.8481C46.4697 36.7824 46.4697 33.2638 46.4697 31.1387C46.4697 30.0935 45.4969 29.2574 44.3439 29.2574Z" fill="#F4C18F"/>
<path d="M40.707 43.3463C41.9017 43.3463 42.8574 42.2224 42.8574 40.8175H38.5224C38.5224 42.2224 39.5123 43.3463 40.707 43.3463Z" fill="#D1966C"/>
<path d="M34.0176 34.6762H42.7179L43.6242 31.0612L44.2042 34.6762H47.5393C47.5393 34.6762 48.2644 24.5612 39.419 24.5612C35.8664 24.5612 31.0087 24.9435 30.9362 34.6762H34.0176Z" fill="#491F17"/>
<path d="M58.2129 73.1308H77.2625L69.6053 62.782L58.2129 73.1308Z" fill="#37495E"/>
<path d="M24.2002 51.4C26.6274 50.51 32.7845 47.7344 32.7845 47.7344C32.7845 47.7344 35.6419 50.1935 39.0045 50.1935C42.4267 50.1935 43.0706 47.7508 43.0706 47.7508C43.0706 47.7508 48.3212 49.6123 50.7192 51.0778L53.7569 73.0649H28.4502L24.2002 51.4Z" fill="#7EC9FF"/>
<path d="M43.3248 74.1375C43.3248 76.8368 41.1366 79.025 38.4373 79.025C35.738 79.025 33.5498 76.8368 33.5498 74.1375C33.5498 71.4382 35.738 69.25 38.4373 69.25C41.1366 69.25 43.3248 71.4382 43.3248 74.1375Z" fill="#F4C18F"/>
<path d="M36.0892 62.45L42.2203 71.009L34.302 76.6811L28.1709 68.1221L36.0892 62.45Z" fill="#F4C18F"/>
<path d="M39.9268 66.275L32.7004 54.3743C31.4935 51.8154 26.7506 49.6999 23.3531 51.8249C20.8576 53.3858 20.3758 57.7749 22.0762 60.3243L28.4506 73.0749L39.9268 66.275Z" fill="url(#paint1_linear_14701_35813)"/>
<path d="M31.979 48.141C31.9021 48.0552 31.7815 48.0232 31.6721 48.0597L28.362 49.1628C28.1653 49.2284 28.0994 49.4736 28.2368 49.629L48.964 73.0631L54.3161 73.0631L31.979 48.141Z" fill="#409CFF"/>
<path d="M74.6362 50.6528C75.6321 49.6569 77.2466 49.6569 78.2425 50.6528C79.2383 51.6486 79.2383 53.2632 78.2425 54.259L56.8717 75.6298C55.8758 76.6257 54.2613 76.6257 53.2654 75.6298C52.2696 74.634 52.2696 73.0194 53.2654 72.0236L74.6362 50.6528Z" fill="#040405"/>
<path d="M61.1365 65.3331C61.2452 68.0452 60.0355 69.553 59.0862 70.0537C57.2878 71.0024 54.9552 69.6652 56.8354 66.6133C57.1731 66.0652 58.4234 64.6945 58.7077 64.35C58.992 64.0054 59.3456 63.6433 59.7511 63.3982C59.9242 63.2926 60.1071 63.2023 60.2955 63.1295L63.6032 62.0402C63.6523 62.0202 63.7096 62.0464 63.7258 62.0959C63.834 62.4145 63.7955 62.7671 63.6217 63.0598L63.5823 63.1274C63.4824 63.295 63.3418 63.4353 63.1709 63.5344L61.7822 64.2688L61.1365 65.3331Z" fill="#F4C18F"/>
<path d="M61.1662 66.1946C61.1013 65.7297 61.4255 65.3001 61.8904 65.2351L68.625 64.294C69.0899 64.2291 69.5195 64.5533 69.5844 65.0182C69.6494 65.4831 69.3252 65.9127 68.8603 65.9777L62.1257 66.9188C61.6608 66.9837 61.2312 66.6595 61.1662 66.1946Z" fill="#F4C18F"/>
<path d="M60.0334 68.0693C59.9685 67.6044 60.2927 67.1749 60.7576 67.1099L67.4922 66.1688C67.9571 66.1038 68.3867 66.428 68.4516 66.893C68.5166 67.3579 68.1924 67.7875 67.7274 67.8524L60.9929 68.7935C60.528 68.8585 60.0984 68.5343 60.0334 68.0693Z" fill="#F4C18F"/>
<path d="M58.9006 69.9441C58.8356 69.4792 59.1599 69.0496 59.6248 68.9846L66.3594 68.0435C66.8243 67.9786 67.2538 68.3028 67.3188 68.7677C67.3838 69.2326 67.0596 69.6622 66.5946 69.7272L59.8601 70.6683C59.3951 70.7333 58.9656 70.409 58.9006 69.9441Z" fill="#F4C18F"/>
<path d="M61.8501 71.0878C61.7892 70.6519 62.0933 70.2492 62.5292 70.1884L65.4694 69.7797C65.9015 69.7194 66.3015 70.0184 66.3661 70.4499C66.4317 70.8875 66.1276 71.2945 65.6894 71.3558L62.7495 71.7666C62.3137 71.8275 61.911 71.5236 61.8501 71.0878Z" fill="#F4C18F"/>
<path d="M58.9437 65.6469L65.4678 64.7351L65.1167 71.4357L59.8554 72.1709L58.9437 65.6469Z" fill="#F4C18F"/>
<path d="M59.7502 72.1856C57.9486 72.4374 56.2841 71.181 56.0323 69.3794C55.7806 67.5779 57.037 65.9133 58.8385 65.6615C60.6401 65.4098 62.3047 66.6662 62.5564 68.4677C62.8082 70.2693 61.5518 71.9339 59.7502 72.1856Z" fill="#F4C18F"/>
<path d="M57.3498 67.125L37.584 70.5664L39.6782 78.8491L59.0498 72.225L57.3498 67.125Z" fill="#F4C18F"/>
</g>
<path d="M48.243 31.1801H32.8809L36.3422 32.9625C37.4771 33.5469 38.7351 33.8517 40.0116 33.8517H50.0445C50.7054 33.8517 50.9649 32.9946 50.415 32.6281L48.243 31.1801Z" fill="#285AAA"/>
<path d="M48.7363 27.6045L47.5232 29.1793H28.4237C28.352 29.1793 28.2805 29.1736 28.2097 29.1621L26.9667 28.9603C25.857 28.7803 25.5236 27.473 26.5143 26.9418C30.7795 24.6552 37.4702 23.3901 42.1737 22.735C43.3319 22.5737 44.5021 22.8773 45.4535 23.5573L48.4548 25.7026C49.0702 26.1425 49.1979 27.0052 48.7363 27.6045Z" fill="#321100"/>
<path fill-rule="evenodd" clip-rule="evenodd" d="M28.2041 29.1763H47.5738L48.2417 31.18H28.2041V29.1763Z" fill="#7EC9FF"/>
<defs>
<linearGradient id="paint0_linear_14701_35813" x1="37.7815" y1="43.3726" x2="37.7815" y2="52.7609" gradientUnits="userSpaceOnUse">
<stop stop-color="#DBA175"/>
<stop offset="0.0533725" stop-color="#DBA175" stop-opacity="0.9224"/>
<stop offset="0.6882" stop-color="#DBA175" stop-opacity="0"/>
</linearGradient>
<linearGradient id="paint1_linear_14701_35813" x1="31.1146" y1="50.8342" x2="28.0555" y2="73.1056" gradientUnits="userSpaceOnUse">
<stop stop-color="#7EC9FF"/>
<stop offset="1" stop-color="#409CFF"/>
</linearGradient>
<clipPath id="clip0_14701_35813">
<rect width="68" height="68" fill="white" transform="translate(14 14)"/>
</clipPath>
<clipPath id="clip1_14701_35813">
<rect width="23.8" height="23.8" fill="white" transform="translate(52.25 17.4)"/>
</clipPath>
<clipPath id="clip2_14701_35813">
<rect width="17" height="17" fill="white" transform="translate(73.1348 25.1945) rotate(50.3565)"/>
</clipPath>
</defs>
</svg>
