<svg width="96" height="96" viewBox="0 0 96 96" fill="none" xmlns="http://www.w3.org/2000/svg">
<path d="M0 48C0 21.4903 21.4903 0 48 0C74.5097 0 96 21.4903 96 48C96 74.5097 74.5097 96 48 96C21.4903 96 0 74.5097 0 48Z" fill="black" fill-opacity="0.05"/>
<g clip-path="url(#clip0_14701_35867)">
<g clip-path="url(#clip1_14701_35867)">
<path d="M47.652 62.3378C50.5832 67.2823 54.4697 68.5679 56.7332 68.3642C61.0216 67.9781 63.626 62.915 56.7694 59.658C55.5381 59.0731 51.7374 58.0777 50.8353 57.793C49.9332 57.5084 48.8877 57.2723 47.8848 57.3038C47.4556 57.3155 47.0266 57.3657 46.6079 57.4535L39.4757 59.3282C39.3653 59.3492 39.2937 59.4617 39.322 59.5684C39.4968 60.2591 39.9712 60.8413 40.6174 61.1612L40.7651 61.236C41.1358 61.4186 41.5472 61.506 41.9652 61.4853L45.2788 61.1905L47.652 62.3378Z" fill="#D1966C"/>
<path d="M48.5913 63.9031C48.1712 63.0022 47.1002 62.6124 46.1993 63.0325L33.1484 69.1182C32.2475 69.5383 31.8577 70.6093 32.2778 71.5103C32.6979 72.4112 33.7689 72.801 34.6699 72.3809L47.7207 66.2952C48.6217 65.8751 49.0115 64.8041 48.5913 63.9031Z" fill="#D1966C"/>
<path d="M52.7637 65.9297C52.3436 65.0288 51.2726 64.639 50.3716 65.0591L37.3208 71.1448C36.4198 71.5649 36.03 72.6359 36.4502 73.5369C36.8703 74.4378 37.9413 74.8276 38.8422 74.4075L51.8931 68.3218C52.794 67.9017 53.1838 66.8307 52.7637 65.9297Z" fill="#D1966C"/>
<path d="M56.9361 67.9561C56.5159 67.0551 55.445 66.6653 54.544 67.0855L41.4932 73.1712C40.5922 73.5913 40.2024 74.6623 40.6225 75.5632C41.0427 76.4642 42.1136 76.854 43.0146 76.4339L56.0654 70.3482C56.9664 69.928 57.3562 68.8571 56.9361 67.9561Z" fill="#D1966C"/>
<path d="M53.0128 73.3856C52.6189 72.5409 51.6147 72.1756 50.7702 72.5697L45.0749 75.2305C44.2377 75.6212 43.8713 76.6132 44.2535 77.4544C44.6411 78.3075 45.6503 78.6805 46.4996 78.2844L52.1968 75.6278C53.0413 75.234 53.4067 74.2301 53.0128 73.3856Z" fill="#D1966C"/>
<path d="M51.9087 60.3702L39.2656 66.2656L47.6082 77.7676L57.8041 73.0131L51.9087 60.3702Z" fill="#D1966C"/>
<path d="M58.008 72.9179C61.4993 71.2899 63.0098 67.1399 61.3818 63.6486C59.7538 60.1574 55.6038 58.6469 52.1125 60.2749C48.6212 61.9029 47.1108 66.0529 48.7388 69.5442C50.3668 73.0354 54.5168 74.5459 58.008 72.9179Z" fill="#D1966C"/>
<path d="M52.8599 62.4092L57.8045 73.013L65.9613 69.2094L61.0166 58.6056L52.8599 62.4092Z" fill="#D1966C"/>
<path d="M47.7972 62.3378C44.866 67.2823 40.9795 68.5679 38.7161 68.3642C34.4277 67.9781 31.8232 62.915 38.6799 59.658C39.9111 59.0731 43.7118 58.0777 44.6139 57.793C45.516 57.5084 46.5615 57.2723 47.5644 57.3038C47.9936 57.3155 48.4226 57.3657 48.8413 57.4535L55.9735 59.3282C56.0839 59.3492 56.1555 59.4617 56.1273 59.5684C55.9524 60.2591 55.478 60.8413 54.8318 61.1612L54.6841 61.236C54.3134 61.4186 53.902 61.506 53.4841 61.4853L50.1704 61.1905L47.7972 62.3378Z" fill="#F4C18F"/>
<path d="M46.8579 63.9031C47.278 63.0022 48.349 62.6124 49.2499 63.0325L62.3008 69.1182C63.2017 69.5383 63.5915 70.6093 63.1714 71.5103C62.7513 72.4112 61.6803 72.801 60.7793 72.3809L47.7285 66.2952C46.8275 65.8751 46.4377 64.8041 46.8579 63.9031Z" fill="#F4C18F"/>
<path d="M42.6855 65.9297C43.1056 65.0288 44.1766 64.639 45.0776 65.0591L58.1284 71.1448C59.0294 71.5649 59.4192 72.6359 58.9991 73.5369C58.5789 74.4378 57.508 74.8276 56.607 74.4075L43.5562 68.3218C42.6552 67.9017 42.2654 66.8307 42.6855 65.9297Z" fill="#F4C18F"/>
<path d="M38.5131 67.9561C38.9333 67.0551 40.0042 66.6653 40.9052 67.0855L53.956 73.1712C54.857 73.5913 55.2468 74.6623 54.8267 75.5632C54.4066 76.4642 53.3356 76.854 52.4346 76.4339L39.3838 70.3482C38.4828 69.928 38.093 68.8571 38.5131 67.9561Z" fill="#F4C18F"/>
<path d="M42.4364 73.3856C42.8303 72.5409 43.8345 72.1756 44.6791 72.5697L50.3743 75.2305C51.2115 75.6212 51.5779 76.6132 51.1958 77.4544C50.8081 78.3075 49.7989 78.6805 48.9496 78.2844L43.2525 75.6278C42.4079 75.234 42.0426 74.2301 42.4364 73.3856Z" fill="#F4C18F"/>
<path d="M43.5405 60.3702L56.1836 66.2656L47.841 77.7676L37.6451 73.0131L43.5405 60.3702Z" fill="#F4C18F"/>
<path d="M37.4412 72.9179C33.9499 71.2899 32.4394 67.1399 34.0674 63.6486C35.6955 60.1574 39.8454 58.6469 43.3367 60.2749C46.828 61.9029 48.3384 66.0529 46.7104 69.5442C45.0824 73.0354 40.9324 74.5459 37.4412 72.9179Z" fill="#F4C18F"/>
<path d="M42.5894 62.4092L37.6447 73.013L29.488 69.2094L34.4326 58.6056L42.5894 62.4092Z" fill="#F4C18F"/>
<path d="M47.6526 62.3371C50.5839 67.2816 54.4703 68.5672 56.7338 68.3635C61.0222 67.9775 63.6266 62.9143 56.77 59.6573C55.5387 59.0724 51.738 58.077 50.8359 57.7923C49.9338 57.5077 48.8884 57.2716 47.8854 57.3031C47.4562 57.3148 47.0272 57.3651 46.6085 57.4528L39.4764 59.3275C39.366 59.3485 39.2944 59.461 39.3226 59.5678C39.4974 60.2585 39.9718 60.8406 40.618 61.1605L40.7657 61.2353C41.1364 61.4179 41.5479 61.5053 41.9658 61.4846L45.2794 61.1898L47.6526 62.3371Z" fill="#D1966C"/>
<path d="M39.2917 68.2436C38.8716 67.3426 37.8006 66.9528 36.8997 67.3729L33.1554 69.1189C32.2545 69.539 31.8647 70.61 32.2848 71.511C32.7049 72.4119 33.7759 72.8017 34.6769 72.3816L38.4211 70.6356C39.3221 70.2155 39.7119 69.1445 39.2917 68.2436Z" fill="#D1966C"/>
<path d="M43.1506 70.4159C42.7305 69.515 41.6595 69.1252 40.7585 69.5453L37.3302 71.1439C36.4293 71.5641 36.0395 72.635 36.4596 73.536C36.8797 74.437 37.9507 74.8268 38.8517 74.4066L42.28 72.808C43.1809 72.3879 43.5707 71.3169 43.1506 70.4159Z" fill="#D1966C"/>
<path d="M45.8546 73.1274C45.4345 72.2264 44.3635 71.8366 43.4625 72.2567L41.5011 73.1713C40.6002 73.5915 40.2104 74.6624 40.6305 75.5634C41.0506 76.4644 42.1216 76.8542 43.0226 76.434L44.984 75.5194C45.8849 75.0993 46.2747 74.0283 45.8546 73.1274Z" fill="#D1966C"/>
<path d="M48.7743 75.3675C48.3804 74.5226 47.3757 74.1576 46.5313 74.5525L45.073 75.2346C44.2321 75.6278 43.8674 76.627 44.2574 77.4695C44.6492 78.316 45.6541 78.6834 46.4995 78.2892L47.9586 77.6088C48.8027 77.2151 49.168 76.2117 48.7743 75.3675Z" fill="#D1966C"/>
<path d="M30.62 56.0651C30.8453 55.5773 31.422 55.3674 31.9081 55.5962L35.6122 57.3396C36.0983 57.5684 36.3097 58.1492 36.0844 58.6369L30.6093 70.4878C30.384 70.9755 29.8073 71.1854 29.3212 70.9566L25.617 69.2132C25.131 68.9844 24.9196 68.4036 25.1449 67.9159L30.62 56.0651Z" fill="url(#paint0_linear_14701_35867)"/>
<path d="M7.17226 62.0099C6.9412 62.51 7.16984 63.105 7.6763 63.3215L25.3307 70.8686C25.812 71.0744 26.3673 70.8608 26.5869 70.3854L33.444 55.5431C33.6637 55.0678 33.4688 54.5012 33.0032 54.2613L15.9273 45.4623C15.4374 45.2098 14.8389 45.4155 14.6078 45.9157L7.17226 62.0099Z" fill="#0045B3"/>
<path d="M65.3783 56.0653C65.153 55.5776 64.5763 55.3677 64.0902 55.5965L60.3861 57.3398C59.9 57.5686 59.6886 58.1495 59.9139 58.6372L65.389 70.488C65.6143 70.9757 66.191 71.1856 66.6771 70.9568L70.3813 69.2135C70.8673 68.9847 71.0787 68.4039 70.8534 67.9162L65.3783 56.0653Z" fill="url(#paint1_linear_14701_35867)"/>
<path d="M88.8258 62.0101C89.0569 62.5103 88.8282 63.1053 88.3218 63.3218L70.6674 70.8688C70.186 71.0746 69.6308 70.8611 69.4112 70.3857L62.554 55.5434C62.3344 55.068 62.5293 54.5014 62.9949 54.2615L80.0708 45.4625C80.5607 45.2101 81.1592 45.4158 81.3903 45.9159L88.8258 62.0101Z" fill="#0045B3"/>
</g>
<path d="M48.0005 21.4342C36.9262 7.66543 16.0357 28.7131 48.0005 47C79.9652 28.7131 59.0716 7.66547 48.0005 21.4342Z" fill="#E90046"/>
<path d="M48.0003 22.6778C40.1832 12.8102 25.437 27.8944 48.0003 41C70.5637 27.8944 55.8152 12.8103 48.0003 22.6778Z" fill="#FF6A7B"/>
<path d="M48.0002 23.9215C43.1145 17.955 33.8981 27.0757 48.0002 35C62.1023 27.0757 52.8845 17.955 48.0002 23.9215Z" fill="#FFD8D9"/>
</g>
<defs>
<linearGradient id="paint0_linear_14701_35867" x1="33.7605" y1="56.4673" x2="27.373" y2="70.0389" gradientUnits="userSpaceOnUse">
<stop stop-color="#D9D9D9"/>
<stop offset="1" stop-color="white"/>
</linearGradient>
<linearGradient id="paint1_linear_14701_35867" x1="62.2361" y1="56.4676" x2="68.6236" y2="70.0392" gradientUnits="userSpaceOnUse">
<stop stop-color="#D9D9D9"/>
<stop offset="1" stop-color="white"/>
</linearGradient>
<clipPath id="clip0_14701_35867">
<rect width="80" height="80" fill="white" transform="translate(8 8)"/>
</clipPath>
<clipPath id="clip1_14701_35867">
<rect width="60" height="60" fill="white" transform="translate(18 30)"/>
</clipPath>
</defs>
</svg>
