<svg width="96" height="96" viewBox="0 0 96 96" fill="none" xmlns="http://www.w3.org/2000/svg">
<path d="M0 48C0 21.4903 21.4903 0 48 0C74.5097 0 96 21.4903 96 48C96 74.5097 74.5097 96 48 96C21.4903 96 0 74.5097 0 48Z" fill="black" fill-opacity="0.05"/>
<path d="M19 31.7999C19 28.8176 21.4177 26.3999 24.4 26.3999H67.6C70.5823 26.3999 73 28.8176 73 31.7999V67.7999C73 70.7822 70.5823 73.1999 67.6 73.1999H24.4C21.4177 73.1999 19 70.7822 19 67.7999V31.7999Z" fill="#409CFF"/>
<path d="M22.6001 39.9001C22.6001 38.906 23.406 38.1001 24.4001 38.1001H67.6001C68.5942 38.1001 69.4001 38.906 69.4001 39.9001V67.8001C69.4001 68.7942 68.5942 69.6001 67.6001 69.6001H24.4001C23.406 69.6001 22.6001 68.7942 22.6001 67.8001V39.9001Z" fill="white"/>
<path opacity="0.15" d="M25.9673 68.6995C49.5372 68.6995 68.6444 49.9626 68.6444 26.8495C68.6444 26.733 68.6439 26.6165 68.643 26.5002C71.1259 26.9864 72.9994 29.1741 72.9994 31.7995V67.7995C72.9994 70.7818 70.5818 73.1995 67.5994 73.1995H24.3998C21.5339 73.1995 19.1895 70.967 19.0107 68.1463C21.2746 68.5102 23.5984 68.6995 25.9673 68.6995Z" fill="#0062FF"/>
<path d="M29.8002 35.4C31.7884 35.4 33.4002 33.7882 33.4002 31.8C33.4002 29.8117 31.7884 28.2 29.8002 28.2C27.812 28.2 26.2002 29.8117 26.2002 31.8C26.2002 33.7882 27.812 35.4 29.8002 35.4Z" fill="white"/>
<path d="M28 24.6C28 23.6059 28.8059 22.8 29.8 22.8C30.7941 22.8 31.6 23.6059 31.6 24.6V31.8C31.6 32.7942 30.7941 33.6 29.8 33.6C28.8059 33.6 28 32.7942 28 31.8V24.6Z" fill="#0062FF"/>
<path d="M40.6 35.4C42.5882 35.4 44.2 33.7882 44.2 31.8C44.2 29.8117 42.5882 28.2 40.6 28.2C38.6118 28.2 37 29.8117 37 31.8C37 33.7882 38.6118 35.4 40.6 35.4Z" fill="white"/>
<path d="M38.7998 24.6C38.7998 23.6059 39.6057 22.8 40.5998 22.8C41.5939 22.8 42.3998 23.6059 42.3998 24.6V31.8C42.3998 32.7942 41.5939 33.6 40.5998 33.6C39.6057 33.6 38.7998 32.7942 38.7998 31.8V24.6Z" fill="#0062FF"/>
<path d="M51.3998 35.4C53.388 35.4 54.9998 33.7882 54.9998 31.8C54.9998 29.8117 53.388 28.2 51.3998 28.2C49.4116 28.2 47.7998 29.8117 47.7998 31.8C47.7998 33.7882 49.4116 35.4 51.3998 35.4Z" fill="white"/>
<path d="M49.6001 24.6C49.6001 23.6059 50.406 22.8 51.4001 22.8C52.3942 22.8 53.2001 23.6059 53.2001 24.6V31.8C53.2001 32.7942 52.3942 33.6 51.4001 33.6C50.406 33.6 49.6001 32.7942 49.6001 31.8V24.6Z" fill="#0062FF"/>
<path d="M62.2001 35.4C64.1883 35.4 65.8001 33.7882 65.8001 31.8C65.8001 29.8117 64.1883 28.2 62.2001 28.2C60.2119 28.2 58.6001 29.8117 58.6001 31.8C58.6001 33.7882 60.2119 35.4 62.2001 35.4Z" fill="white"/>
<path d="M60.3999 24.6C60.3999 23.6059 61.2058 22.8 62.1999 22.8C63.194 22.8 63.9999 23.6059 63.9999 24.6V31.8C63.9999 32.7942 63.194 33.6 62.1999 33.6C61.2058 33.6 60.3999 32.7942 60.3999 31.8V24.6Z" fill="#0062FF"/>
<path d="M43.75 46.6499C43.75 45.4073 44.7574 44.3999 46 44.3999C47.2426 44.3999 48.25 45.4073 48.25 46.6499C48.25 47.8925 47.2426 48.8999 46 48.8999C44.7574 48.8999 43.75 47.8925 43.75 46.6499Z" fill="#FFCA40"/>
<path d="M35.6499 46.6499C35.6499 45.4073 36.6573 44.3999 37.8999 44.3999C39.1425 44.3999 40.1499 45.4073 40.1499 46.6499C40.1499 47.8925 39.1425 48.8999 37.8999 48.8999C36.6573 48.8999 35.6499 47.8925 35.6499 46.6499Z" fill="#FFCA40"/>
<path d="M51.8501 46.6499C51.8501 45.4073 52.8575 44.3999 54.1001 44.3999C55.3427 44.3999 56.3501 45.4073 56.3501 46.6499C56.3501 47.8925 55.3427 48.8999 54.1001 48.8999C52.8575 48.8999 51.8501 47.8925 51.8501 46.6499Z" fill="#FFCA40"/>
<path d="M59.9502 46.6499C59.9502 45.4073 60.9576 44.3999 62.2002 44.3999C63.4428 44.3999 64.4502 45.4073 64.4502 46.6499C64.4502 47.8925 63.4428 48.8999 62.2002 48.8999C60.9576 48.8999 59.9502 47.8925 59.9502 46.6499Z" fill="#FFCA40"/>
<path d="M27.5498 53.8501C27.5498 52.6075 28.5572 51.6001 29.7998 51.6001C31.0424 51.6001 32.0498 52.6075 32.0498 53.8501C32.0498 55.0927 31.0424 56.1001 29.7998 56.1001C28.5572 56.1001 27.5498 55.0927 27.5498 53.8501Z" fill="#FFCA40"/>
<path d="M35.6499 53.8501C35.6499 52.6075 36.6573 51.6001 37.8999 51.6001C39.1425 51.6001 40.1499 52.6075 40.1499 53.8501C40.1499 55.0927 39.1425 56.1001 37.8999 56.1001C36.6573 56.1001 35.6499 55.0927 35.6499 53.8501Z" fill="#FFCA40"/>
<path d="M43.75 53.8501C43.75 52.6075 44.7574 51.6001 46 51.6001C47.2426 51.6001 48.25 52.6075 48.25 53.8501C48.25 55.0927 47.2426 56.1001 46 56.1001C44.7574 56.1001 43.75 55.0927 43.75 53.8501Z" fill="#FFCA40"/>
<path d="M51.8501 53.8501C51.8501 52.6075 52.8575 51.6001 54.1001 51.6001C55.3427 51.6001 56.3501 52.6075 56.3501 53.8501C56.3501 55.0927 55.3427 56.1001 54.1001 56.1001C52.8575 56.1001 51.8501 55.0927 51.8501 53.8501Z" fill="#FFCA40"/>
<path d="M59.9502 53.8501C59.9502 52.6075 60.9576 51.6001 62.2002 51.6001C63.4428 51.6001 64.4502 52.6075 64.4502 53.8501C64.4502 55.0927 63.4428 56.1001 62.2002 56.1001C60.9576 56.1001 59.9502 55.0927 59.9502 53.8501Z" fill="#FFCA40"/>
<path d="M27.5498 61.05C27.5498 59.8074 28.5572 58.8 29.7998 58.8C31.0424 58.8 32.0498 59.8074 32.0498 61.05C32.0498 62.2927 31.0424 63.3 29.7998 63.3C28.5572 63.3 27.5498 62.2927 27.5498 61.05Z" fill="#FFCA40"/>
<path d="M35.6499 61.05C35.6499 59.8074 36.6573 58.8 37.8999 58.8C39.1425 58.8 40.1499 59.8074 40.1499 61.05C40.1499 62.2927 39.1425 63.3 37.8999 63.3C36.6573 63.3 35.6499 62.2927 35.6499 61.05Z" fill="#FFCA40"/>
<path d="M43.75 61.05C43.75 59.8074 44.7574 58.8 46 58.8C47.2426 58.8 48.25 59.8074 48.25 61.05C48.25 62.2927 47.2426 63.3 46 63.3C44.7574 63.3 43.75 62.2927 43.75 61.05Z" fill="#FFCA40"/>
<path d="M51.8501 61.05C51.8501 59.8074 52.8575 58.8 54.1001 58.8C55.3427 58.8 56.3501 59.8074 56.3501 61.05C56.3501 62.2927 55.3427 63.3 54.1001 63.3C52.8575 63.3 51.8501 62.2927 51.8501 61.05Z" fill="#FFCA40"/>
<path d="M66.0575 72.9914C66.4769 74.0763 67.134 74.7748 67.8727 74.7748H69.9109V72.9914H78.099C78.5196 73.9266 79.1468 74.5201 79.8473 74.5201H81.8856V72.175C82.0484 71.5801 82.1404 70.9047 82.1404 70.1888C82.1404 67.7967 81.1137 65.8576 79.8473 65.8576C78.5809 65.8576 77.5543 67.7967 77.5543 70.1888C77.5543 70.8246 77.6268 71.4284 77.7571 71.9723H69.9859C70.1017 71.424 70.1657 70.8214 70.1657 70.1888C70.1657 67.656 69.1391 65.6028 67.8727 65.6028C66.6063 65.6028 65.5797 67.656 65.5797 70.1888C65.5797 70.8214 65.6437 71.424 65.7595 71.9723H59.0304C59.1462 71.424 59.2102 70.8214 59.2102 70.1888C59.2102 67.656 58.1836 65.6028 56.9172 65.6028C56.5511 65.6028 56.2051 65.7744 55.8981 66.0795C55.5911 65.7744 55.245 65.6028 54.879 65.6028C53.6126 65.6028 52.5859 67.656 52.5859 70.1888C52.5859 72.7216 53.6126 74.7748 54.879 74.7748H56.9172C57.6559 74.7748 58.313 74.0763 58.7324 72.9914H66.0575Z" fill="#37495E"/>
<path d="M66.5986 71.208H52.0762C51.173 71.208 50.9297 68.4025 50.9297 66.3672C50.9297 65.1453 51.5892 64.1929 52.6388 63.7839L56.046 62.434C56.2848 62.3393 56.5033 62.2004 56.6954 62.03C57.6665 61.1686 60.9294 58.4194 63.9541 57.5434C64.1862 57.4762 64.4249 57.45 64.6665 57.45C66.3792 57.45 72.4952 57.45 75.5159 57.45C75.5159 60.5416 69.7494 63.0449 68.2027 65.2725C66.4282 67.828 66.5986 71.208 66.5986 71.208Z" fill="#B7E1FF"/>
<path d="M66.5986 71.208H52.0762C51.173 71.208 50.9297 68.4025 50.9297 66.3672C50.9297 65.1453 51.5892 64.1929 52.6388 63.7839L56.046 62.434C56.2848 62.3393 56.5033 62.2004 56.6954 62.03C57.6665 61.1686 60.9294 58.4194 63.9541 57.5434C64.1862 57.4762 64.4249 57.45 64.6665 57.45C66.3792 57.45 72.4952 57.45 75.5159 57.45C75.5159 60.5416 69.7494 63.0449 68.2027 65.2725C66.4282 67.828 66.5986 71.208 66.5986 71.208Z" fill="url(#paint0_radial_14701_35884)"/>
<path fill-rule="evenodd" clip-rule="evenodd" d="M80.9938 59.743L82.9153 61.878C83.1585 62.1483 83.4716 62.3436 83.8095 62.4779C83.958 62.5369 84.1117 62.6043 84.2317 62.6713C85.1306 63.1734 85.1976 64.6959 85.1976 65.307C85.1976 65.9182 85.1976 69.9342 85.1976 69.9342C85.1976 70.4437 82.1403 72.2272 82.1403 72.2272C82.1403 72.2272 62.3605 72.2272 52.3311 72.2272L51.1551 67.3093C51.0402 66.8289 51.4045 66.3672 51.8985 66.3672H63.2866C66.2166 63.1303 68.8918 63.9468 70.0316 62.3411L72.4587 58.9786C73.341 57.434 73.5604 57.45 75.516 57.45C78.3186 57.45 80.1003 58.8495 80.9938 59.743Z" fill="url(#paint1_linear_14701_35884)"/>
<path d="M84.9058 70.6041C85.3615 70.2054 85.1947 69.4603 84.6124 69.294L84.1789 69.1701L80.1024 70.5743H62.7636C62.6051 70.5743 62.4488 70.5373 62.3072 70.4663L59.8962 69.2586C59.6128 69.1166 59.3002 69.0427 58.9833 69.0427H53.4845C53.16 69.0427 52.855 69.1972 52.663 69.4588L51.8441 70.5743C51.479 70.5743 51.2386 70.9548 51.3955 71.2845L51.7058 71.9368C51.7903 72.1144 51.9694 72.2275 52.166 72.2275H80.1024L83.7908 71.4898C83.8781 71.4723 83.9594 71.4323 84.0264 71.3736L84.9058 70.6041Z" fill="#409CFF"/>
<path d="M62.3558 72.017L59.477 70.0378C59.1372 69.8043 58.7346 69.6792 58.3223 69.6792H53.468C53.2461 69.6792 53.0497 69.8228 52.9824 70.0343L52.415 71.8177C52.3104 72.1464 52.5557 72.4818 52.9005 72.4818H62.2115C62.4617 72.4818 62.562 72.1588 62.3558 72.017Z" fill="#232E3B"/>
<path d="M84.4486 66.7073C84.2958 65.1412 82.9792 63.9468 81.4057 63.9468H71.4604C69.9901 63.9468 68.538 64.5375 67.6516 65.7106C66.9642 66.6204 66.4471 67.5841 66.2556 68.8874C66.2335 69.0377 66.3522 69.17 66.5041 69.17H84.4071C84.5581 69.17 84.6761 69.0399 84.6615 68.8896L84.4486 66.7073Z" fill="url(#paint2_linear_14701_35884)"/>
<path d="M79.5928 70.1889C79.5928 72.581 80.6194 74.5202 81.8858 74.5202C83.1522 74.5202 84.1788 72.581 84.1788 70.1889C84.1788 67.7968 83.1522 65.8577 81.8858 65.8577C80.6194 65.8577 79.5928 67.7968 79.5928 70.1889Z" fill="#37495E"/>
<path d="M67.6187 70.1888C67.6187 72.7216 68.6453 74.7748 69.9117 74.7748C71.1781 74.7748 72.2047 72.7216 72.2047 70.1888C72.2047 67.656 71.1781 65.6028 69.9117 65.6028C68.6453 65.6028 67.6187 67.656 67.6187 70.1888Z" fill="#37495E"/>
<path d="M80.6123 70.3159C80.6123 71.9341 81.1826 73.2459 81.8862 73.2459C82.5898 73.2459 83.1601 71.9341 83.1601 70.3159C83.1601 68.6978 82.5898 67.386 81.8862 67.386C81.1826 67.386 80.6123 68.6978 80.6123 70.3159Z" fill="url(#paint3_linear_14701_35884)"/>
<path d="M68.6362 70.3168C68.6362 72.0757 69.2066 73.5016 69.9101 73.5016C70.6137 73.5016 71.184 72.0757 71.184 70.3168C71.184 68.5579 70.6137 67.1321 69.9101 67.1321C69.2066 67.1321 68.6362 68.5579 68.6362 70.3168Z" fill="url(#paint4_linear_14701_35884)"/>
<path d="M73.5328 59.0121L71.8507 62.0559C71.6645 62.3929 71.9027 62.8061 72.2877 62.8094C74.2055 62.8263 78.8572 62.8479 80.7944 62.6863C81.2865 62.6453 81.5086 62.2056 81.2784 61.7687C80.0874 59.5081 77.7708 57.9595 76.28 57.9597C75.9094 57.9598 75.7113 57.9598 75.3343 57.9597L75.3169 57.9597C74.575 57.9597 73.8916 58.3628 73.5328 59.0121Z" fill="#212C38"/>
<path d="M74.6586 59.7658L73.387 62.0357C73.1982 62.3728 73.435 62.7884 73.8214 62.7916C75.4773 62.8051 79.1115 62.8184 80.7846 62.6977C81.2812 62.6618 81.5066 62.224 81.2618 61.7904C80.2309 59.9642 78.3217 58.7235 77.0831 58.7236L76.437 58.7237C75.6993 58.7236 75.0191 59.1222 74.6586 59.7658Z" fill="#37495E"/>
<path d="M68.8577 62.8005H57.9216C57.4635 62.8005 57.2494 62.2579 57.5971 61.9596C58.8948 60.846 61.3526 58.9229 63.7477 58.0626C63.947 57.9911 64.1564 57.9597 64.3682 57.9597H72.3624C72.7763 57.9597 73.0174 58.427 72.7776 58.7644L70.5193 61.9429C70.137 62.4809 69.5178 62.8005 68.8577 62.8005Z" fill="#212C38"/>
<path d="M68.8389 62.8001H61.5568C61.0899 62.8001 60.8747 62.233 61.2313 61.9316C62.2154 61.0997 63.7621 59.849 65.116 59.0018C65.4167 58.8137 65.7639 58.7236 66.1186 58.7236H71.745C72.1553 58.7236 72.3973 59.1838 72.1648 59.5219L70.5185 61.9166C70.1382 62.4697 69.5101 62.8001 68.8389 62.8001Z" fill="#37495E"/>
<path fill-rule="evenodd" clip-rule="evenodd" d="M66.1339 64.9463C66.3557 65.4636 66.116 66.0628 65.5987 66.2845L65.1972 65.3477C65.5987 66.2845 65.598 66.2848 65.5973 66.2851L65.5959 66.2857L65.5929 66.2869L65.5865 66.2896C65.582 66.2915 65.5771 66.2935 65.5718 66.2956C65.5611 66.2999 65.5488 66.3047 65.5345 66.3101C65.5061 66.3208 65.4703 66.3336 65.4262 66.3482C65.338 66.3773 65.2161 66.4138 65.0536 66.455C64.7289 66.5373 64.2378 66.6395 63.5228 66.7393C62.0942 66.9386 59.752 67.1312 56.0252 67.1312C53.8275 67.1312 52.6043 66.9409 51.8961 66.6909C51.5373 66.5643 51.2387 66.3978 51.0207 66.1669C50.9079 66.0475 50.818 65.9119 50.7577 65.763C50.728 65.6895 50.707 65.6165 50.6936 65.5455C50.6869 65.5102 50.6822 65.4758 50.6792 65.4427C50.6777 65.4261 50.6766 65.4099 50.6759 65.3941C50.6755 65.3862 50.6752 65.3783 50.6751 65.3706L50.6749 65.3591L50.6748 65.3534C50.6748 65.3506 50.6748 65.3477 51.6939 65.3477H50.6748C50.6748 64.7849 51.1311 64.3286 51.6939 64.3286C52.0324 64.3286 52.3323 64.4936 52.5176 64.7476C52.5338 64.754 52.5526 64.7612 52.5745 64.7689C52.9492 64.9011 53.8916 65.093 56.0252 65.093C59.6869 65.093 61.9308 64.9034 63.2411 64.7206C63.8955 64.6293 64.312 64.5403 64.5527 64.4793C64.6728 64.4489 64.748 64.4257 64.7862 64.413C64.8008 64.4082 64.81 64.4049 64.814 64.4034C65.3271 64.195 65.9148 64.435 66.1339 64.9463Z" fill="white"/>
<path d="M53.1823 67.3088L52.902 65.9075C52.8705 65.7499 52.9911 65.6028 53.1518 65.6028H58.9893C59.1928 65.6028 59.3141 65.8296 59.2013 65.9989L58.2671 67.4002C58.2198 67.4711 58.1403 67.5136 58.0551 67.5136H53.4321C53.3106 67.5136 53.2061 67.4279 53.1823 67.3088Z" fill="#37495E"/>
<defs>
<radialGradient id="paint0_radial_14701_35884" cx="0" cy="0" r="1" gradientTransform="matrix(-0.171369 27.5949 51.7173 0.291575 63.5852 43.7342)" gradientUnits="userSpaceOnUse">
<stop offset="0.69" stop-color="#B7E1FF"/>
<stop offset="0.796183" stop-color="#B7E1FF"/>
<stop offset="0.845111" stop-color="#7EC9FF"/>
</radialGradient>
<linearGradient id="paint1_linear_14701_35884" x1="73.6951" y1="59.395" x2="73.7881" y2="67.7675" gradientUnits="userSpaceOnUse">
<stop stop-color="#B7E1FF"/>
<stop offset="1" stop-color="#7EC9FF"/>
</linearGradient>
<linearGradient id="paint2_linear_14701_35884" x1="75.0996" y1="64.1808" x2="75.2618" y2="68.4054" gradientUnits="userSpaceOnUse">
<stop stop-color="#409CFF"/>
<stop offset="1" stop-color="#7EC9FF"/>
</linearGradient>
<linearGradient id="paint3_linear_14701_35884" x1="81.8862" y1="67.386" x2="81.8862" y2="73.2459" gradientUnits="userSpaceOnUse">
<stop stop-color="#DADBDF"/>
<stop offset="1" stop-color="#A5A5A5"/>
</linearGradient>
<linearGradient id="paint4_linear_14701_35884" x1="69.9101" y1="67.1321" x2="69.9101" y2="73.5016" gradientUnits="userSpaceOnUse">
<stop stop-color="#DADBDF"/>
<stop offset="1" stop-color="#A5A5A5"/>
</linearGradient>
</defs>
</svg>
