<svg width="96" height="96" viewBox="0 0 96 96" fill="none" xmlns="http://www.w3.org/2000/svg">
<path d="M0 48C0 21.4903 21.4903 0 48 0C74.5097 0 96 21.4903 96 48C96 74.5097 74.5097 96 48 96C21.4903 96 0 74.5097 0 48Z" fill="black" fill-opacity="0.05"/>
<g clip-path="url(#clip0_14701_35873)">
<path d="M72.4798 27.7027C72.4798 34.3573 65.2459 39.4148 64.1498 39.4148C63.0538 39.4148 55.8198 34.3573 55.8198 27.7027C55.8198 22.9984 59.5493 19.1848 64.1498 19.1848C68.7504 19.1848 72.4798 22.9984 72.4798 27.7027Z" fill="url(#paint0_linear_14701_35873)"/>
<path d="M67.1248 27.2174C67.1248 28.8605 65.7929 30.1924 64.1498 30.1924C62.5068 30.1924 61.1748 28.8605 61.1748 27.2174C61.1748 25.5744 62.5068 24.2424 64.1498 24.2424C65.7929 24.2424 67.1248 25.5744 67.1248 27.2174Z" fill="white"/>
<path d="M51.5145 51.3667L61.5746 54.0623L59.478 61.8868L49.418 59.1912L51.5145 51.3667Z" fill="#F4C18F"/>
<path d="M66.2749 41.2L57.6587 56.7285L64.3142 59.1768L70.5249 42.9L66.2749 41.2Z" fill="#F4C18F"/>
<path d="M55.9245 52.0911L47.0999 49.343L44.7959 59.8657L54.044 62.3614L55.9245 52.0911Z" fill="#7EC9FF"/>
<g clip-path="url(#clip1_14701_35873)">
<path d="M68.2891 35.8326C70.4583 38.4507 70.0703 40.2306 69.5256 41.1552C68.4936 42.9072 65.4512 43.5652 65.3414 39.1028C65.3201 38.2388 65.4985 36.7371 65.6134 35.8741C65.6713 35.4395 65.6289 34.997 65.4814 34.5841L64.9696 33.1514C64.9094 32.9831 64.961 32.7952 65.0986 32.6812L65.1291 32.6559C65.3858 32.4431 65.7099 32.3069 66.028 32.4069C66.378 32.517 66.8489 32.7783 67.2349 33.3945C67.9461 34.5299 68.2891 35.8326 68.2891 35.8326Z" fill="#F4C18F"/>
<path d="M69.4833 36.7747C69.1838 36.4132 69.234 35.8773 69.5955 35.5778L72.3772 33.273C72.7387 32.9735 73.2745 33.0238 73.574 33.3852C73.8736 33.7467 73.8233 34.2826 73.4618 34.5821L70.6801 36.8869C70.3186 37.1864 69.7828 37.1361 69.4833 36.7747Z" fill="#F4C18F"/>
<path d="M70.4042 38.2192C70.1047 37.8578 70.1549 37.3219 70.5164 37.0224L73.2981 34.7176C73.6596 34.4181 74.1954 34.4683 74.4949 34.8298C74.7945 35.1913 74.7442 35.7271 74.3827 36.0267L71.601 38.3315C71.2395 38.631 70.7037 38.5807 70.4042 38.2192Z" fill="#F4C18F"/>
<path d="M71.407 39.5961C71.1075 39.2346 71.1577 38.6988 71.5192 38.3993L73.8919 36.4334C74.2533 36.1339 74.7892 36.1842 75.0887 36.5456C75.3882 36.9071 75.338 37.443 74.9765 37.7425L72.6038 39.7083C72.2423 40.0078 71.7065 39.9576 71.407 39.5961Z" fill="#F4C18F"/>
<path d="M72.3086 40.8504C72.0278 40.5115 72.075 40.009 72.4142 39.7284L74.4585 38.0368C74.7957 37.7577 75.295 37.8034 75.576 38.139C75.8592 38.4772 75.8132 38.9812 75.4735 39.2626L73.4303 40.9556C73.0915 41.2363 72.5893 41.1892 72.3086 40.8504Z" fill="#F4C18F"/>
<path d="M66.9773 37.7471L72.0498 33.5442L75.1497 39.5306L71.1801 42.8196L66.9773 37.7471Z" fill="#F4C18F"/>
<path d="M71.0987 42.8874C69.698 44.048 67.6216 43.8533 66.461 42.4525C65.3004 41.0518 65.4951 38.9754 66.8958 37.8148C68.2966 36.6542 70.373 36.8489 71.5336 38.2497C72.6942 39.6504 72.4995 41.7268 71.0987 42.8874Z" fill="#F4C18F"/>
</g>
<path d="M64.4606 58.1661C64.4606 60.3231 62.712 62.0717 60.555 62.0717C58.398 62.0717 56.6494 60.3231 56.6494 58.1661C56.6494 56.0091 58.398 54.2605 60.555 54.2605C62.712 54.2605 64.4606 56.0091 64.4606 58.1661Z" fill="#F4C18F"/>
<path d="M33.6417 73.1305H24.3748L17.119 57.2346C15.3699 53.4028 18.1705 49.0459 22.3827 49.0459H39.9791L33.6417 73.1305Z" fill="#37495E"/>
<path d="M45.7472 30.2457C45.7114 35.1891 45.7472 44.7912 37.9372 44.7912C31.2378 44.7912 28.4076 38.1053 28.4076 33.1619C28.4076 28.2186 31.202 24.2 37.8297 24.2C42.7379 24.2 45.7831 27.0806 45.7472 30.2457Z" fill="#491F17"/>
<path d="M32.7424 50.3266C35.3084 53.5427 40.2915 53.5427 42.8574 50.3266V40.095H32.7424V50.3266Z" fill="#F4C18F"/>
<path d="M32.7424 50.3266C35.3084 53.5427 40.2915 53.5427 42.8574 50.3266V40.095H32.7424V50.3266Z" fill="url(#paint1_linear_14701_35873)"/>
<path d="M32.2008 40.095C30.7044 40.095 29.4914 38.882 29.4914 37.3856C29.4914 35.8893 30.7044 34.6763 32.2008 34.6763C33.6971 34.6763 34.9102 35.8893 34.9102 37.3856C34.9102 38.882 33.6971 40.095 32.2008 40.095Z" fill="#F4C18F"/>
<path d="M44.3444 29.2576H34.8685C33.7155 29.2576 32.7427 30.0937 32.7427 31.1388V39.8482C32.7427 43.1577 35.7693 45.8751 39.5164 45.8751H39.6965C43.4076 45.8751 46.4702 43.1577 46.4702 39.8482C46.4702 36.7825 46.4702 33.2639 46.4702 31.1388C46.4702 30.0937 45.4974 29.2576 44.3444 29.2576Z" fill="#F4C18F"/>
<path d="M40.707 43.3461C41.9017 43.3461 42.8574 42.2222 42.8574 40.8174H38.5224C38.5224 42.2222 39.5123 43.3461 40.707 43.3461Z" fill="#D1966C"/>
<path d="M34.0176 34.6763H42.7179L43.6242 31.0613L44.2042 34.6763H47.5393C47.5393 34.6763 48.2644 24.5613 39.419 24.5613C35.8664 24.5613 31.0087 24.9436 30.9362 34.6763H34.0176Z" fill="#491F17"/>
<path d="M58.2134 73.1308H77.263L69.6058 62.782L58.2134 73.1308Z" fill="#37495E"/>
<path d="M24.2002 51.4C26.6274 50.51 32.7845 47.7344 32.7845 47.7344C32.7845 47.7344 35.6419 50.1935 39.0045 50.1935C42.4267 50.1935 43.0706 47.7508 43.0706 47.7508C43.0706 47.7508 48.3212 49.6123 50.7192 51.0778L53.7569 73.0649H28.4502L24.2002 51.4Z" fill="#7EC9FF"/>
<path d="M43.3248 74.1375C43.3248 76.8368 41.1366 79.025 38.4373 79.025C35.738 79.025 33.5498 76.8368 33.5498 74.1375C33.5498 71.4382 35.738 69.25 38.4373 69.25C41.1366 69.25 43.3248 71.4382 43.3248 74.1375Z" fill="#F4C18F"/>
<path d="M36.0892 62.45L42.2203 71.009L34.302 76.6811L28.1709 68.1221L36.0892 62.45Z" fill="#F4C18F"/>
<path d="M39.9268 66.275L32.7004 54.3743C31.4935 51.8154 26.7506 49.6999 23.3531 51.8249C20.8576 53.3858 20.3758 57.7749 22.0762 60.3243L28.4506 73.0749L39.9268 66.275Z" fill="url(#paint2_linear_14701_35873)"/>
<path d="M31.9795 48.1411C31.9025 48.0553 31.782 48.0233 31.6726 48.0598L28.3625 49.163C28.1658 49.2285 28.0999 49.4737 28.2373 49.6291L48.9645 73.0633L54.3166 73.0633L31.9795 48.1411Z" fill="#409CFF"/>
<path d="M74.6367 50.6526C75.6326 49.6568 77.2471 49.6568 78.243 50.6526C79.2388 51.6485 79.2388 53.263 78.243 54.2589L56.8722 75.6297C55.8763 76.6255 54.2618 76.6255 53.2659 75.6297C52.2701 74.6339 52.2701 73.0193 53.2659 72.0234L74.6367 50.6526Z" fill="#040405"/>
<path d="M61.1365 65.3329C61.2452 68.0451 60.0355 69.5529 59.0862 70.0536C57.2878 71.0023 54.9552 69.6651 56.8354 66.6132C57.1731 66.0651 58.4234 64.6944 58.7077 64.3498C58.992 64.0053 59.3456 63.6432 59.7511 63.3981C59.9242 63.2925 60.1071 63.2022 60.2955 63.1294L63.6032 62.0401C63.6523 62.0201 63.7096 62.0462 63.7258 62.0958C63.834 62.4144 63.7955 62.7669 63.6217 63.0597L63.5823 63.1272C63.4824 63.2949 63.3418 63.4352 63.1709 63.5343L61.7822 64.2687L61.1365 65.3329Z" fill="#F4C18F"/>
<path d="M61.1662 66.1945C61.1013 65.7295 61.4255 65.3 61.8904 65.235L68.625 64.2939C69.0899 64.2289 69.5195 64.5532 69.5844 65.0181C69.6494 65.483 69.3252 65.9126 68.8603 65.9775L62.1257 66.9187C61.6608 66.9836 61.2312 66.6594 61.1662 66.1945Z" fill="#F4C18F"/>
<path d="M60.0334 68.0692C59.9685 67.6043 60.2927 67.1747 60.7576 67.1098L67.4922 66.1687C67.9571 66.1037 68.3867 66.4279 68.4516 66.8928C68.5166 67.3578 68.1924 67.7873 67.7274 67.8523L60.9929 68.7934C60.528 68.8584 60.0984 68.5341 60.0334 68.0692Z" fill="#F4C18F"/>
<path d="M58.9011 69.9442C58.8361 69.4793 59.1604 69.0497 59.6253 68.9848L66.3598 68.0437C66.8248 67.9787 67.2543 68.3029 67.3193 68.7678C67.3843 69.2328 67.06 69.6623 66.5951 69.7273L59.8606 70.6684C59.3956 70.7334 58.9661 70.4091 58.9011 69.9442Z" fill="#F4C18F"/>
<path d="M61.8501 71.0878C61.7892 70.6519 62.0933 70.2492 62.5292 70.1884L65.4694 69.7797C65.9015 69.7194 66.3015 70.0184 66.3661 70.4499C66.4317 70.8875 66.1276 71.2945 65.6894 71.3558L62.7495 71.7666C62.3137 71.8275 61.911 71.5236 61.8501 71.0878Z" fill="#F4C18F"/>
<path d="M58.9442 65.6469L65.4683 64.7351L65.1172 71.4357L59.8558 72.1709L58.9442 65.6469Z" fill="#F4C18F"/>
<path d="M59.7507 72.1855C57.9491 72.4373 56.2846 71.1809 56.0328 69.3793C55.7811 67.5777 57.0374 65.9132 58.839 65.6614C60.6406 65.4097 62.3052 66.666 62.5569 68.4676C62.8087 70.2692 61.5523 71.9338 59.7507 72.1855Z" fill="#F4C18F"/>
<path d="M57.3498 67.125L37.584 70.5664L39.6782 78.8491L59.0498 72.225L57.3498 67.125Z" fill="#F4C18F"/>
</g>
<path d="M48.2425 31.1799H32.8804L36.3418 32.9623C37.4766 33.5467 38.7346 33.8516 40.0111 33.8516H50.0441C50.7049 33.8516 50.9644 32.9945 50.4146 32.6279L48.2425 31.1799Z" fill="#285AAA"/>
<path d="M48.7363 27.6044L47.5232 29.1792H28.4237C28.352 29.1792 28.2805 29.1734 28.2097 29.162L26.9667 28.9602C25.857 28.7802 25.5236 27.4729 26.5143 26.9417C30.7795 24.655 37.4702 23.39 42.1737 22.7349C43.3319 22.5735 44.5021 22.8772 45.4535 23.5571L48.4548 25.7024C49.0702 26.1423 49.1979 27.005 48.7363 27.6044Z" fill="#321100"/>
<path fill-rule="evenodd" clip-rule="evenodd" d="M28.2046 29.1763H47.5743L48.2422 31.18H28.2046V29.1763Z" fill="#7EC9FF"/>
<defs>
<linearGradient id="paint0_linear_14701_35873" x1="64.1498" y1="19.1848" x2="64.1498" y2="39.4148" gradientUnits="userSpaceOnUse">
<stop stop-color="#E90046"/>
<stop offset="1" stop-color="#FF6B6E"/>
</linearGradient>
<linearGradient id="paint1_linear_14701_35873" x1="37.7815" y1="43.3726" x2="37.7815" y2="52.7609" gradientUnits="userSpaceOnUse">
<stop stop-color="#DBA175"/>
<stop offset="0.0533725" stop-color="#DBA175" stop-opacity="0.9224"/>
<stop offset="0.6882" stop-color="#DBA175" stop-opacity="0"/>
</linearGradient>
<linearGradient id="paint2_linear_14701_35873" x1="31.1146" y1="50.8342" x2="28.0555" y2="73.1056" gradientUnits="userSpaceOnUse">
<stop stop-color="#7EC9FF"/>
<stop offset="1" stop-color="#409CFF"/>
</linearGradient>
<clipPath id="clip0_14701_35873">
<rect width="68" height="68" fill="white" transform="translate(14 14)"/>
</clipPath>
<clipPath id="clip1_14701_35873">
<rect width="17" height="17" fill="white" transform="translate(73.1348 25.1943) rotate(50.3565)"/>
</clipPath>
</defs>
</svg>
