<svg width="96" height="96" viewBox="0 0 96 96" fill="none" xmlns="http://www.w3.org/2000/svg">
<path d="M0 48C0 21.4903 21.4903 0 48 0C74.5097 0 96 21.4903 96 48C96 74.5097 74.5097 96 48 96C21.4903 96 0 74.5097 0 48Z" fill="black" fill-opacity="0.05"/>
<g clip-path="url(#clip0_14701_35807)">
<g clip-path="url(#clip1_14701_35807)">
<path d="M48.4908 61.6053C47.6831 61.2792 47.9176 60.0696 48.7886 60.0539C59.0528 59.8684 62.2966 59.2417 62.2966 57.1312C62.2966 54.8138 59.1715 54.1662 55.0732 54.1662C51.4001 54.1661 48.624 53.4551 46.1387 52.8185C42.1243 51.7902 38.8683 50.9562 33.8156 53.6271C33.5601 53.7622 33.4029 54.0301 33.4029 54.319L33.4029 59.3358C33.4029 59.7752 33.7591 60.1314 34.1985 60.1314C34.8884 60.1313 35.5626 60.1312 36.2215 60.1308C36.7425 60.1306 37.1202 60.6371 37.202 61.1516C37.3359 61.9937 37.8953 62.7467 38.7435 63.0892L39.5004 63.3947C40.0655 63.6229 39.8286 64.5734 39.2204 64.5335C37.8358 64.4427 36.6397 65.4915 36.5489 66.8762C36.458 68.2608 37.5069 69.4569 38.8915 69.5477C43.1263 69.8255 46.4345 70.5158 48.7173 71.1522C51.7872 72.0081 55.3672 72.0581 58.5309 70.4763L65.8392 66.8221L75.1641 63.0922C76.4525 62.5768 77.0791 61.1146 76.5638 59.8262C76.0484 58.5379 74.5862 57.9112 73.2979 58.4266L70.1582 59.6824C69.9352 59.7716 69.6864 59.7482 69.4616 59.6636C68.911 59.4565 68.2857 59.4408 67.6919 59.6645L58.3701 63.1771C56.379 63.9273 54.1786 63.9016 52.2055 63.1051L48.4908 61.6053Z" fill="#F4C18F"/>
<path d="M47.8496 60.7593C47.8496 65.616 43.9125 69.5531 39.0559 69.5531C34.1992 69.5531 30.2621 65.616 30.2621 60.7593C30.2621 55.9027 34.1992 51.9656 39.0559 51.9656C43.9125 51.9656 47.8496 55.9027 47.8496 60.7593Z" fill="#F4C18F"/>
<path d="M27.7504 55.1062L39.0566 55.1062L39.0566 69.5531L27.7504 69.5531L27.7504 55.1062Z" fill="#F4C18F"/>
</g>
<path d="M73.2979 58.4259C74.5862 57.9107 76.0482 58.537 76.5635 59.8253C77.0786 61.1135 76.4521 62.5755 75.1641 63.0909L65.8389 66.8214L58.5303 70.4747C55.3666 72.0566 51.7867 72.0074 48.7168 71.1515C46.4496 70.5194 43.1709 69.8333 38.9775 69.5519H27.75V60.0421C32.1232 64.0695 39.8925 66.7501 48.75 66.7501C57.8592 66.7501 65.8173 63.915 70.1143 59.6954C70.1287 59.6906 70.144 59.6875 70.1582 59.6818L73.2979 58.4259Z" fill="url(#paint0_linear_14701_35807)"/>
<rect x="24.75" y="52.5" width="8.25" height="18" rx="1.26667" fill="white"/>
<rect x="24.75" y="52.5" width="8.25" height="18" rx="1.26667" fill="url(#paint1_linear_14701_35807)"/>
<rect x="19.5" y="51" width="8.25" height="21" rx="1.26667" fill="#0045B3"/>
<path d="M32 32C32 23.1634 39.1634 16 48 16C56.8366 16 64 23.1634 64 32C64 40.8366 56.8366 48 48 48C39.1634 48 32 40.8366 32 32Z" fill="#0062FF"/>
<mask id="mask0_14701_35807" style="mask-type:alpha" maskUnits="userSpaceOnUse" x="32" y="16" width="32" height="32">
<path d="M64 32C64 40.8366 56.8366 48 48 48C39.1634 48 32 40.8366 32 32C32 23.1634 39.1634 16 48 16C56.8366 16 64 23.1634 64 32Z" fill="#0062FF"/>
</mask>
<g mask="url(#mask0_14701_35807)">
<path d="M63 42.6C41.771 49.004 29.9957 35.4437 36.4286 18H34.0312C32.9094 18 32 18.9094 32 20.0312V45.9688C32 47.0906 32.9094 48 34.0313 48H60.9688C62.0906 48 63 47.0906 63 45.9688V42.6Z" fill="white" fill-opacity="0.25"/>
</g>
<path fill-rule="evenodd" clip-rule="evenodd" d="M47.9996 22.5C49.1042 22.5 49.9996 23.3954 49.9996 24.5V32.3941C49.9996 33.4023 49.4957 34.3439 48.6568 34.9032L43.4847 38.3516C42.5656 38.9643 41.3239 38.716 40.7112 37.797C40.0984 36.8779 40.3467 35.6362 41.2658 35.0234L45.9996 31.8673V24.5C45.9996 23.3954 46.895 22.5 47.9996 22.5Z" fill="white"/>
</g>
<defs>
<linearGradient id="paint0_linear_14701_35807" x1="36.75" y1="66" x2="37.1909" y2="51.7638" gradientUnits="userSpaceOnUse">
<stop stop-color="#DBA175" stop-opacity="0.6"/>
<stop offset="1" stop-color="#DBA175" stop-opacity="0"/>
</linearGradient>
<linearGradient id="paint1_linear_14701_35807" x1="28.875" y1="52.5" x2="28.875" y2="70.5" gradientUnits="userSpaceOnUse">
<stop stop-color="#D9D9D9"/>
<stop offset="1" stop-color="white"/>
</linearGradient>
<clipPath id="clip0_14701_35807">
<rect width="80" height="80" fill="white" transform="translate(8 8)"/>
</clipPath>
<clipPath id="clip1_14701_35807">
<rect width="50.25" height="50.25" fill="white" transform="translate(78 33.75) rotate(90)"/>
</clipPath>
</defs>
</svg>
