<svg width="120" height="120" viewBox="0 0 120 120" fill="none" xmlns="http://www.w3.org/2000/svg">
<g clip-path="url(#clip0_14701_35856)">
<path d="M56.7622 83.6522C57.4612 85.4603 58.5564 86.6247 59.7875 86.6247H63.1846V83.6522H76.8313C77.5323 85.211 78.5776 86.2 79.7452 86.2H83.1423V82.2916C83.4137 81.3001 83.5669 80.1745 83.5669 78.9813C83.5669 74.9945 81.8559 71.7625 79.7452 71.7625C77.6346 71.7625 75.9235 74.9945 75.9235 78.9813C75.9235 80.0409 76.0444 81.0472 76.2615 81.9537H63.3095C63.5025 81.04 63.6092 80.0356 63.6092 78.9813C63.6092 74.7599 61.8982 71.3379 59.7875 71.3379C57.6769 71.3379 55.9658 74.7599 55.9658 78.9813C55.9658 80.0356 56.0725 81.04 56.2656 81.9537H45.0503C45.2433 81.04 45.35 80.0356 45.35 78.9813C45.35 74.7599 43.639 71.3379 41.5283 71.3379C40.9182 71.3379 40.3415 71.6238 39.8298 72.1324C39.3181 71.6238 38.7414 71.3379 38.1313 71.3379C36.0206 71.3379 34.3096 74.7599 34.3096 78.9813C34.3096 83.2026 36.0206 86.6247 38.1313 86.6247H41.5283C42.7595 86.6247 43.8546 85.4603 44.5536 83.6522H56.7622Z" fill="#37495E"/>
<path d="M57.6652 80.6801H34.0245C33.5852 80.6801 33.2189 80.3457 33.1834 79.9078C33.0643 78.4392 32.8242 75.1627 32.8242 72.6121C32.8242 70.9969 34.616 69.2355 35.3574 68.5758C35.5642 68.3919 35.7978 68.2445 36.0456 68.1213L40.3832 65.9655C40.5806 65.8674 40.7632 65.7538 40.939 65.6211C42.2923 64.5991 48.6534 59.8779 53.0421 58.057C53.5685 57.8386 54.1285 57.75 54.6984 57.75C57.8592 57.75 67.6321 57.75 72.5273 57.75C72.5273 62.9028 62.9165 67.0749 60.3386 70.7875C57.3812 75.0467 57.6652 80.6801 57.6652 80.6801Z" fill="url(#paint0_linear_14701_35856)"/>
<path fill-rule="evenodd" clip-rule="evenodd" d="M81.8686 61.3594C82.8845 62.2059 85.3763 65.2717 86.1166 66.192C86.2554 66.3646 86.4353 66.4983 86.6416 66.5789C87.0054 66.721 87.608 66.9523 88.0262 67.0919C88.6623 67.3042 88.6627 69.8265 88.6627 70.8452C88.6627 71.8638 88.6627 78.557 88.6627 78.557C88.6627 79.4063 83.5671 82.3787 83.5671 82.3787C83.5671 82.3787 50.6008 82.3787 33.8852 82.3787L31.9252 74.1823C31.7337 73.3815 32.3408 72.6122 33.1641 72.6122H41.9532C46.4118 66.455 63.386 65.902 63.386 65.902L67.4311 60.2978C68.9017 57.7235 69.2674 57.75 72.5267 57.75C77.1977 57.75 79.3208 59.2362 81.8686 61.3594Z" fill="url(#paint1_linear_14701_35856)"/>
<path d="M77.8332 59.0239V58.1748C77.8332 57.9403 77.6431 57.7502 77.4086 57.7502L71.0391 57.75L77.8332 59.0239Z" fill="#404040"/>
<path d="M35.735 76.2553C33.6738 70.0638 33.6738 70.2761 55.5424 59.4479L58.5513 57.7544H54.4808C51.7207 57.7544 48.7483 59.4479 40.468 65.8174C39.9013 66.2534 36.9082 67.4476 34.4604 68.3862C32.5052 69.1359 31.2826 71.1001 31.5056 73.1821L32.09 78.6364C32.1923 79.5913 33.4415 79.8819 33.9548 79.0702L35.735 76.2553Z" fill="url(#paint2_linear_14701_35856)"/>
<path d="M88.6729 81.2604C88.9215 81.1671 89.0862 80.9295 89.0862 80.664V79.2752C89.0862 78.8935 88.7527 78.5975 88.3737 78.6428L80.169 79.6239H52.8251C52.2654 79.6239 51.7416 79.3482 51.4248 78.8867L49.9763 76.7768C49.7316 76.4205 49.3603 76.1708 48.938 76.0787L37.918 73.6743L33.2598 76.0034C32.9891 76.1388 32.8108 76.408 32.792 76.7101L32.6227 79.4224C32.6144 79.5563 32.5902 79.6887 32.5507 79.8169L32.015 81.5547C31.8888 81.9644 32.195 82.3793 32.6237 82.3793H85.5352C85.637 82.3793 85.738 82.361 85.8334 82.3252L88.6729 81.2604Z" fill="black"/>
<path d="M87.4139 73.179C87.1593 70.5688 84.965 68.5781 82.3424 68.5781H65.767C63.3165 68.5781 60.8963 69.5626 59.419 71.5178C58.2733 73.0342 57.4116 74.6403 57.0923 76.8125C57.0555 77.0629 57.2534 77.2835 57.5065 77.2835H87.3449C87.5964 77.2835 87.7932 77.0666 87.7688 76.8162L87.4139 73.179Z" fill="url(#paint3_linear_14701_35856)"/>
<path d="M79.3213 78.9814C79.3213 82.9683 81.0323 86.2002 83.143 86.2002C85.2536 86.2002 86.9647 82.9683 86.9647 78.9814C86.9647 74.9946 85.2536 71.7627 83.143 71.7627C81.0323 71.7627 79.3213 74.9946 79.3213 78.9814Z" fill="#37495E"/>
<path d="M59.3643 78.9813C59.3643 83.2026 61.0753 86.6247 63.1859 86.6247C65.2966 86.6247 67.0076 83.2026 67.0076 78.9813C67.0076 74.7599 65.2966 71.3379 63.1859 71.3379C61.0753 71.3379 59.3643 74.7599 59.3643 78.9813Z" fill="#37495E"/>
<path d="M81.0205 79.1933C81.0205 81.8903 81.9711 84.0766 83.1437 84.0766C84.3163 84.0766 85.2668 81.8903 85.2668 79.1933C85.2668 76.4964 84.3163 74.3101 83.1437 74.3101C81.9711 74.3101 81.0205 76.4964 81.0205 79.1933Z" fill="url(#paint4_linear_14701_35856)"/>
<path d="M61.0605 79.1946C61.0605 82.1261 62.0111 84.5025 63.1837 84.5025C64.3563 84.5025 65.3069 82.1261 65.3069 79.1946C65.3069 76.2631 64.3563 73.8867 63.1837 73.8867C62.0111 73.8867 61.0605 76.2631 61.0605 79.1946Z" fill="url(#paint5_linear_14701_35856)"/>
<path d="M69.2217 60.3536L66.4182 65.4266C66.1078 65.9882 66.5049 66.6768 67.1466 66.6825C70.3428 66.7105 78.0956 66.7465 81.3244 66.4772C82.1446 66.4088 82.5146 65.6761 82.131 64.9479C80.146 61.1803 76.285 58.5993 73.8003 58.5996C73.1826 58.5997 72.8524 58.5997 72.2241 58.5996L72.1952 58.5996C70.9587 58.5996 69.8197 59.2714 69.2217 60.3536Z" fill="#808C9A"/>
<path d="M71.0978 61.6094L68.9785 65.3927C68.6638 65.9545 69.0586 66.6472 69.7025 66.6525C72.4624 66.6749 78.5193 66.6972 81.3078 66.496C82.1354 66.4362 82.5111 65.7065 82.1032 64.9839C80.3851 61.9402 77.203 59.8723 75.1387 59.8726L74.0618 59.8726C72.8324 59.8726 71.6986 60.5368 71.0978 61.6094Z" fill="#37495E"/>
<path d="M61.4299 66.6676H43.203C42.4395 66.6676 42.0827 65.7633 42.6622 65.2661C44.8251 63.4101 48.9213 60.205 52.9132 58.7711C53.2453 58.6519 53.5944 58.5996 53.9472 58.5996H67.2711C67.9609 58.5996 68.3626 59.3785 67.9631 59.9408L64.1991 65.2382C63.5619 66.1349 62.53 66.6676 61.4299 66.6676Z" fill="#808C9A"/>
<path d="M61.4431 66.6667H49.2613C48.483 66.6667 48.1243 65.7215 48.7186 65.2191C50.3589 63.8326 52.9367 61.7482 55.1931 60.3362C55.6943 60.0226 56.2728 59.8726 56.8639 59.8726H66.4122C67.1041 59.8726 67.5054 60.6556 67.1015 61.2175L64.2015 65.2523C63.5633 66.1402 62.5366 66.6667 61.4431 66.6667Z" fill="#37495E"/>
<path fill-rule="evenodd" clip-rule="evenodd" d="M56.8902 69.8189C57.2598 70.6812 56.8604 71.6797 55.9981 72.0492L55.329 70.488C55.9981 72.0492 55.997 72.0497 55.9958 72.0502L55.9934 72.0512L55.9885 72.0533L55.9778 72.0578C55.9703 72.0609 55.9622 72.0642 55.9533 72.0678C55.9356 72.0749 55.9149 72.083 55.8912 72.0919C55.8439 72.1097 55.7841 72.1311 55.7106 72.1554C55.5636 72.204 55.3605 72.2648 55.0896 72.3335C54.5485 72.4707 53.7301 72.6409 52.5383 72.8072C50.1573 73.1394 46.2537 73.4605 40.0423 73.4605C36.3795 73.4605 34.3408 73.1432 33.1606 72.7267C32.5626 72.5156 32.0648 72.238 31.7015 71.8533C31.5135 71.6543 31.3636 71.4282 31.2632 71.18C31.2136 71.0576 31.1786 70.9359 31.1563 70.8176C31.1452 70.7587 31.1373 70.7015 31.1323 70.6463C31.1297 70.6187 31.1279 70.5917 31.1267 70.5653C31.1261 70.5521 31.1257 70.539 31.1254 70.5261L31.1251 70.507L31.125 70.4975C31.125 70.4927 31.125 70.488 32.8235 70.488H31.125C31.125 69.55 31.8855 68.7895 32.8235 68.7895C33.3876 68.7895 33.8875 69.0645 34.1964 69.4877C34.2233 69.4985 34.2547 69.5104 34.2912 69.5233C34.9156 69.7437 36.4863 70.0634 40.0423 70.0634C46.1452 70.0634 49.885 69.7475 52.0688 69.4427C53.1594 69.2906 53.8537 69.1423 54.2548 69.0406C54.4549 68.9899 54.5802 68.9512 54.644 68.9301C54.6684 68.9221 54.6836 68.9166 54.6903 68.9142C55.5455 68.5667 56.525 68.9668 56.8902 69.8189Z" fill="white"/>
<path d="M33.8703 82.8028H47.6478C48.0402 82.8028 48.2838 82.3759 48.0842 82.0381L43.2033 73.7782C43.0958 73.5962 43.1385 73.3627 43.3037 73.2306L45.0722 71.8158C45.4464 71.5165 45.2347 70.9131 44.7556 70.9131H35.4987C35.2021 70.9131 34.9689 71.1665 34.9936 71.4621L35.1481 73.316C35.1561 73.4121 35.1503 73.5088 35.131 73.6033L33.3737 82.1943C33.3095 82.5086 33.5496 82.8028 33.8703 82.8028Z" fill="url(#paint6_linear_14701_35856)"/>
<path d="M74 41.3158C74 52.5 61.8421 61 60 61C58.1579 61 46 52.5 46 41.3158C46 33.4094 52.268 27 60 27C67.732 27 74 33.4094 74 41.3158Z" fill="url(#paint7_linear_14701_35856)"/>
<path d="M65 40.5C65 43.2614 62.7614 45.5 60 45.5C57.2386 45.5 55 43.2614 55 40.5C55 37.7386 57.2386 35.5 60 35.5C62.7614 35.5 65 37.7386 65 40.5Z" fill="white"/>
</g>
<path d="M0 12C0 5.37258 5.37258 0 12 0C18.6274 0 24 5.37258 24 12C24 18.6274 18.6274 24 12 24C5.37258 24 0 18.6274 0 12Z" fill="#0062FF"/>
<path d="M11.9745 17.1392C11.2321 17.1392 10.5709 17.0116 9.99086 16.7564C9.41415 16.4979 8.95842 16.1432 8.62367 15.6925C8.29223 15.2384 8.12154 14.7147 8.11159 14.1214H10.2792C10.2925 14.37 10.3737 14.5888 10.5228 14.7777C10.6753 14.9633 10.8775 15.1075 11.1294 15.2102C11.3812 15.313 11.6646 15.3643 11.9795 15.3643C12.3076 15.3643 12.5976 15.3063 12.8495 15.1903C13.1014 15.0743 13.2986 14.9136 13.4411 14.7081C13.5837 14.5026 13.6549 14.2656 13.6549 13.9972C13.6549 13.7254 13.5787 13.4851 13.4262 13.2763C13.2771 13.0642 13.0616 12.8984 12.7799 12.7791C12.5015 12.6598 12.1701 12.6001 11.7856 12.6001H10.836V11.0192H11.7856C12.1104 11.0192 12.3971 10.9628 12.6457 10.8501C12.8976 10.7375 13.0931 10.5817 13.2323 10.3828C13.3715 10.1806 13.4411 9.94531 13.4411 9.67685C13.4411 9.42164 13.3798 9.19792 13.2572 9.00568C13.1379 8.81013 12.9688 8.65767 12.7501 8.5483C12.5347 8.43892 12.2828 8.38423 11.9944 8.38423C11.7027 8.38423 11.4359 8.43726 11.194 8.54332C10.952 8.64607 10.7581 8.79356 10.6123 8.9858C10.4665 9.17803 10.3886 9.40341 10.3786 9.66193H8.31543C8.32537 9.07528 8.49275 8.55824 8.81756 8.1108C9.14237 7.66335 9.57987 7.31368 10.1301 7.06179C10.6836 6.80658 11.3083 6.67898 12.0044 6.67898C12.707 6.67898 13.3218 6.80658 13.8488 7.06179C14.3758 7.317 14.7851 7.66169 15.0768 8.09588C15.3718 8.52675 15.5176 9.01065 15.5143 9.54758C15.5176 10.1177 15.3403 10.5933 14.9823 10.9744C14.6277 11.3556 14.1653 11.5975 13.5953 11.7003V11.7798C14.3443 11.8759 14.9144 12.1361 15.3055 12.5604C15.6999 12.9813 15.8954 13.5083 15.8921 14.1413C15.8954 14.7214 15.7281 15.2367 15.39 15.6875C15.0553 16.1383 14.5929 16.4929 14.0029 16.7514C13.413 17.0099 12.7368 17.1392 11.9745 17.1392Z" fill="white"/>
<defs>
<linearGradient id="paint0_linear_14701_35856" x1="52.0388" y1="57.75" x2="52.0388" y2="80.6801" gradientUnits="userSpaceOnUse">
<stop stop-color="#404040"/>
<stop offset="0.5" stop-color="#686868"/>
</linearGradient>
<linearGradient id="paint1_linear_14701_35856" x1="67.1686" y1="60.9772" x2="67.9819" y2="73.1646" gradientUnits="userSpaceOnUse">
<stop offset="0.68" stop-color="#3F3F3F"/>
<stop offset="1" stop-color="#5A5A5A"/>
</linearGradient>
<linearGradient id="paint2_linear_14701_35856" x1="47.7767" y1="60.8895" x2="49.5003" y2="72.5264" gradientUnits="userSpaceOnUse">
<stop stop-color="#3F3F3F"/>
<stop offset="1" stop-color="#4A4A4A"/>
</linearGradient>
<linearGradient id="paint3_linear_14701_35856" x1="74.0339" y1="69.0134" x2="74.0339" y2="76.0726" gradientUnits="userSpaceOnUse">
<stop/>
<stop offset="1" stop-color="#5B5B5B"/>
</linearGradient>
<linearGradient id="paint4_linear_14701_35856" x1="83.1437" y1="74.3101" x2="83.1437" y2="84.0766" gradientUnits="userSpaceOnUse">
<stop stop-color="#DADBDF"/>
<stop offset="1" stop-color="#A5A5A5"/>
</linearGradient>
<linearGradient id="paint5_linear_14701_35856" x1="63.1837" y1="73.8867" x2="63.1837" y2="84.5025" gradientUnits="userSpaceOnUse">
<stop stop-color="#DADBDF"/>
<stop offset="1" stop-color="#A5A5A5"/>
</linearGradient>
<linearGradient id="paint6_linear_14701_35856" x1="42.2703" y1="70.7441" x2="42.2703" y2="82.8246" gradientUnits="userSpaceOnUse">
<stop offset="0.45" stop-color="#A8A8A8"/>
<stop offset="1" stop-color="#595959"/>
</linearGradient>
<linearGradient id="paint7_linear_14701_35856" x1="60" y1="27" x2="60" y2="61" gradientUnits="userSpaceOnUse">
<stop stop-color="#E90046"/>
<stop offset="1" stop-color="#FF6B6E"/>
</linearGradient>
<clipPath id="clip0_14701_35856">
<rect width="80" height="80" fill="white" transform="translate(20 20)"/>
</clipPath>
</defs>
</svg>
