<svg width="120" height="120" viewBox="0 0 120 120" fill="none" xmlns="http://www.w3.org/2000/svg">
<path d="M31 43.8C31 40.8177 33.4177 38.4 36.4 38.4H79.6C82.5823 38.4 85 40.8177 85 43.8V79.8C85 82.7824 82.5823 85.2 79.6 85.2H36.4C33.4177 85.2 31 82.7824 31 79.8V43.8Z" fill="#409CFF"/>
<path d="M34.6001 51.9C34.6001 50.9059 35.406 50.1 36.4001 50.1H79.6001C80.5942 50.1 81.4001 50.9059 81.4001 51.9V79.8C81.4001 80.7941 80.5942 81.6 79.6001 81.6H36.4001C35.406 81.6 34.6001 80.7941 34.6001 79.8V51.9Z" fill="white"/>
<path opacity="0.15" d="M37.9673 80.6995C61.5372 80.6995 80.6444 61.9626 80.6444 38.8495C80.6444 38.733 80.6439 38.6165 80.643 38.5002C83.1259 38.9864 84.9994 41.1741 84.9994 43.7995V79.7995C84.9994 82.7818 82.5818 85.1995 79.5994 85.1995H36.3998C33.5339 85.1995 31.1895 82.967 31.0107 80.1463C33.2746 80.5102 35.5984 80.6995 37.9673 80.6995Z" fill="#0062FF"/>
<path d="M41.8002 47.4C43.7884 47.4 45.4002 45.7882 45.4002 43.8C45.4002 41.8117 43.7884 40.2 41.8002 40.2C39.812 40.2 38.2002 41.8117 38.2002 43.8C38.2002 45.7882 39.812 47.4 41.8002 47.4Z" fill="white"/>
<path d="M40 36.6C40 35.6059 40.8059 34.8 41.8 34.8C42.7941 34.8 43.6 35.6059 43.6 36.6V43.8C43.6 44.7942 42.7941 45.6 41.8 45.6C40.8059 45.6 40 44.7942 40 43.8V36.6Z" fill="#0062FF"/>
<path d="M52.6 47.4C54.5882 47.4 56.2 45.7882 56.2 43.8C56.2 41.8117 54.5882 40.2 52.6 40.2C50.6118 40.2 49 41.8117 49 43.8C49 45.7882 50.6118 47.4 52.6 47.4Z" fill="white"/>
<path d="M50.7998 36.6C50.7998 35.6059 51.6057 34.8 52.5998 34.8C53.5939 34.8 54.3998 35.6059 54.3998 36.6V43.8C54.3998 44.7942 53.5939 45.6 52.5998 45.6C51.6057 45.6 50.7998 44.7942 50.7998 43.8V36.6Z" fill="#0062FF"/>
<path d="M63.3998 47.4C65.388 47.4 66.9998 45.7882 66.9998 43.8C66.9998 41.8117 65.388 40.2 63.3998 40.2C61.4116 40.2 59.7998 41.8117 59.7998 43.8C59.7998 45.7882 61.4116 47.4 63.3998 47.4Z" fill="white"/>
<path d="M61.6001 36.6C61.6001 35.6059 62.406 34.8 63.4001 34.8C64.3942 34.8 65.2001 35.6059 65.2001 36.6V43.8C65.2001 44.7942 64.3942 45.6 63.4001 45.6C62.406 45.6 61.6001 44.7942 61.6001 43.8V36.6Z" fill="#0062FF"/>
<path d="M74.2001 47.4C76.1883 47.4 77.8001 45.7882 77.8001 43.8C77.8001 41.8117 76.1883 40.2 74.2001 40.2C72.2119 40.2 70.6001 41.8117 70.6001 43.8C70.6001 45.7882 72.2119 47.4 74.2001 47.4Z" fill="white"/>
<path d="M72.3999 36.6C72.3999 35.6059 73.2058 34.8 74.1999 34.8C75.194 34.8 75.9999 35.6059 75.9999 36.6V43.8C75.9999 44.7942 75.194 45.6 74.1999 45.6C73.2058 45.6 72.3999 44.7942 72.3999 43.8V36.6Z" fill="#0062FF"/>
<path d="M55.75 58.65C55.75 57.4074 56.7574 56.4 58 56.4C59.2426 56.4 60.25 57.4074 60.25 58.65C60.25 59.8927 59.2426 60.9 58 60.9C56.7574 60.9 55.75 59.8927 55.75 58.65Z" fill="#FFCA40"/>
<path d="M47.6499 58.65C47.6499 57.4074 48.6573 56.4 49.8999 56.4C51.1425 56.4 52.1499 57.4074 52.1499 58.65C52.1499 59.8927 51.1425 60.9 49.8999 60.9C48.6573 60.9 47.6499 59.8927 47.6499 58.65Z" fill="#FFCA40"/>
<path d="M63.8501 58.65C63.8501 57.4074 64.8575 56.4 66.1001 56.4C67.3427 56.4 68.3501 57.4074 68.3501 58.65C68.3501 59.8927 67.3427 60.9 66.1001 60.9C64.8575 60.9 63.8501 59.8927 63.8501 58.65Z" fill="#FFCA40"/>
<path d="M71.9502 58.65C71.9502 57.4074 72.9576 56.4 74.2002 56.4C75.4428 56.4 76.4502 57.4074 76.4502 58.65C76.4502 59.8927 75.4428 60.9 74.2002 60.9C72.9576 60.9 71.9502 59.8927 71.9502 58.65Z" fill="#FFCA40"/>
<path d="M39.5498 65.85C39.5498 64.6073 40.5572 63.6 41.7998 63.6C43.0424 63.6 44.0498 64.6073 44.0498 65.85C44.0498 67.0926 43.0424 68.1 41.7998 68.1C40.5572 68.1 39.5498 67.0926 39.5498 65.85Z" fill="#FFCA40"/>
<path d="M47.6499 65.85C47.6499 64.6073 48.6573 63.6 49.8999 63.6C51.1425 63.6 52.1499 64.6073 52.1499 65.85C52.1499 67.0926 51.1425 68.1 49.8999 68.1C48.6573 68.1 47.6499 67.0926 47.6499 65.85Z" fill="#FFCA40"/>
<path d="M55.75 65.85C55.75 64.6073 56.7574 63.6 58 63.6C59.2426 63.6 60.25 64.6073 60.25 65.85C60.25 67.0926 59.2426 68.1 58 68.1C56.7574 68.1 55.75 67.0926 55.75 65.85Z" fill="#FFCA40"/>
<path d="M63.8501 65.85C63.8501 64.6073 64.8575 63.6 66.1001 63.6C67.3427 63.6 68.3501 64.6073 68.3501 65.85C68.3501 67.0926 67.3427 68.1 66.1001 68.1C64.8575 68.1 63.8501 67.0926 63.8501 65.85Z" fill="#FFCA40"/>
<path d="M71.9502 65.85C71.9502 64.6073 72.9576 63.6 74.2002 63.6C75.4428 63.6 76.4502 64.6073 76.4502 65.85C76.4502 67.0926 75.4428 68.1 74.2002 68.1C72.9576 68.1 71.9502 67.0926 71.9502 65.85Z" fill="#FFCA40"/>
<path d="M39.5498 73.05C39.5498 71.8074 40.5572 70.8 41.7998 70.8C43.0424 70.8 44.0498 71.8074 44.0498 73.05C44.0498 74.2927 43.0424 75.3 41.7998 75.3C40.5572 75.3 39.5498 74.2927 39.5498 73.05Z" fill="#FFCA40"/>
<path d="M47.6499 73.05C47.6499 71.8074 48.6573 70.8 49.8999 70.8C51.1425 70.8 52.1499 71.8074 52.1499 73.05C52.1499 74.2927 51.1425 75.3 49.8999 75.3C48.6573 75.3 47.6499 74.2927 47.6499 73.05Z" fill="#FFCA40"/>
<path d="M55.75 73.05C55.75 71.8074 56.7574 70.8 58 70.8C59.2426 70.8 60.25 71.8074 60.25 73.05C60.25 74.2927 59.2426 75.3 58 75.3C56.7574 75.3 55.75 74.2927 55.75 73.05Z" fill="#FFCA40"/>
<path d="M63.8501 73.05C63.8501 71.8074 64.8575 70.8 66.1001 70.8C67.3427 70.8 68.3501 71.8074 68.3501 73.05C68.3501 74.2927 67.3427 75.3 66.1001 75.3C64.8575 75.3 63.8501 74.2927 63.8501 73.05Z" fill="#FFCA40"/>
<path d="M78.0575 84.9914C78.4769 86.0763 79.134 86.7748 79.8727 86.7748H81.9109V84.9914H90.099C90.5196 85.9266 91.1468 86.5201 91.8473 86.5201H93.8856V84.175C94.0484 83.5801 94.1404 82.9047 94.1404 82.1888C94.1404 79.7967 93.1137 77.8576 91.8473 77.8576C90.5809 77.8576 89.5543 79.7967 89.5543 82.1888C89.5543 82.8246 89.6268 83.4284 89.7571 83.9723H81.9859C82.1017 83.424 82.1657 82.8214 82.1657 82.1888C82.1657 79.656 81.1391 77.6028 79.8727 77.6028C78.6063 77.6028 77.5797 79.656 77.5797 82.1888C77.5797 82.8214 77.6437 83.424 77.7595 83.9723H71.0304C71.1462 83.424 71.2102 82.8214 71.2102 82.1888C71.2102 79.656 70.1836 77.6028 68.9172 77.6028C68.5511 77.6028 68.2051 77.7744 67.8981 78.0795C67.5911 77.7744 67.245 77.6028 66.879 77.6028C65.6126 77.6028 64.5859 79.656 64.5859 82.1888C64.5859 84.7216 65.6126 86.7748 66.879 86.7748H68.9172C69.6559 86.7748 70.313 86.0763 70.7324 84.9914H78.0575Z" fill="#37495E"/>
<path d="M78.5986 83.208H64.0762C63.173 83.208 62.9297 80.4025 62.9297 78.3672C62.9297 77.1453 63.5892 76.1929 64.6388 75.7839L68.046 74.434C68.2848 74.3393 68.5033 74.2004 68.6954 74.03C69.6665 73.1686 72.9294 70.4194 75.9541 69.5434C76.1862 69.4762 76.4249 69.45 76.6665 69.45C78.3792 69.45 84.4952 69.45 87.5159 69.45C87.5159 72.5416 81.7494 75.0449 80.2027 77.2725C78.4282 79.828 78.5986 83.208 78.5986 83.208Z" fill="#B7E1FF"/>
<path d="M78.5986 83.208H64.0762C63.173 83.208 62.9297 80.4025 62.9297 78.3672C62.9297 77.1453 63.5892 76.1929 64.6388 75.7839L68.046 74.434C68.2848 74.3393 68.5033 74.2004 68.6954 74.03C69.6665 73.1686 72.9294 70.4194 75.9541 69.5434C76.1862 69.4762 76.4249 69.45 76.6665 69.45C78.3792 69.45 84.4952 69.45 87.5159 69.45C87.5159 72.5416 81.7494 75.0449 80.2027 77.2725C78.4282 79.828 78.5986 83.208 78.5986 83.208Z" fill="url(#paint0_radial_14701_35842)"/>
<path fill-rule="evenodd" clip-rule="evenodd" d="M92.9938 71.743L94.9153 73.878C95.1585 74.1483 95.4716 74.3436 95.8095 74.4779C95.958 74.5369 96.1117 74.6043 96.2317 74.6713C97.1306 75.1734 97.1976 76.6959 97.1976 77.307C97.1976 77.9182 97.1976 81.9342 97.1976 81.9342C97.1976 82.4437 94.1403 84.2272 94.1403 84.2272C94.1403 84.2272 74.3605 84.2272 64.3311 84.2272L63.1551 79.3093C63.0402 78.8289 63.4045 78.3672 63.8985 78.3672H75.2866C78.2166 75.1303 80.8918 75.9468 82.0316 74.3411L84.4587 70.9786C85.341 69.434 85.5604 69.45 87.516 69.45C90.3186 69.45 92.1003 70.8495 92.9938 71.743Z" fill="url(#paint1_linear_14701_35842)"/>
<path d="M96.9058 82.6041C97.3615 82.2054 97.1947 81.4603 96.6124 81.294L96.1789 81.1701L92.1024 82.5743H74.7636C74.6051 82.5743 74.4488 82.5373 74.3072 82.4663L71.8962 81.2586C71.6128 81.1166 71.3002 81.0427 70.9833 81.0427H65.4845C65.16 81.0427 64.855 81.1972 64.663 81.4588L63.8441 82.5743C63.479 82.5743 63.2386 82.9548 63.3955 83.2845L63.7058 83.9368C63.7903 84.1144 63.9694 84.2275 64.166 84.2275H92.1024L95.7908 83.4898C95.8781 83.4723 95.9594 83.4323 96.0264 83.3736L96.9058 82.6041Z" fill="#409CFF"/>
<path d="M74.3558 84.0169L71.477 82.0377C71.1372 81.8041 70.7346 81.6791 70.3223 81.6791H65.468C65.2461 81.6791 65.0497 81.8227 64.9824 82.0341L64.415 83.8176C64.3104 84.1462 64.5557 84.4817 64.9005 84.4817H74.2115C74.4617 84.4817 74.562 84.1587 74.3558 84.0169Z" fill="#232E3B"/>
<path d="M96.4486 78.7074C96.2958 77.1413 94.9792 75.9469 93.4057 75.9469H83.4604C81.9901 75.9469 80.538 76.5376 79.6516 77.7107C78.9642 78.6205 78.4471 79.5842 78.2556 80.8875C78.2335 81.0378 78.3522 81.1701 78.5041 81.1701H96.4071C96.5581 81.1701 96.6761 81.04 96.6615 80.8897L96.4486 78.7074Z" fill="url(#paint2_linear_14701_35842)"/>
<path d="M91.5928 82.1889C91.5928 84.581 92.6194 86.5202 93.8858 86.5202C95.1522 86.5202 96.1788 84.581 96.1788 82.1889C96.1788 79.7968 95.1522 77.8577 93.8858 77.8577C92.6194 77.8577 91.5928 79.7968 91.5928 82.1889Z" fill="#37495E"/>
<path d="M79.6187 82.1888C79.6187 84.7216 80.6453 86.7748 81.9117 86.7748C83.1781 86.7748 84.2047 84.7216 84.2047 82.1888C84.2047 79.656 83.1781 77.6028 81.9117 77.6028C80.6453 77.6028 79.6187 79.656 79.6187 82.1888Z" fill="#37495E"/>
<path d="M92.6123 82.3159C92.6123 83.9341 93.1826 85.2459 93.8862 85.2459C94.5898 85.2459 95.1601 83.9341 95.1601 82.3159C95.1601 80.6978 94.5898 79.386 93.8862 79.386C93.1826 79.386 92.6123 80.6978 92.6123 82.3159Z" fill="url(#paint3_linear_14701_35842)"/>
<path d="M80.6362 82.3168C80.6362 84.0757 81.2066 85.5016 81.9101 85.5016C82.6137 85.5016 83.184 84.0757 83.184 82.3168C83.184 80.5579 82.6137 79.1321 81.9101 79.1321C81.2066 79.1321 80.6362 80.5579 80.6362 82.3168Z" fill="url(#paint4_linear_14701_35842)"/>
<path d="M85.5328 71.0121L83.8507 74.0559C83.6645 74.3929 83.9027 74.8061 84.2877 74.8094C86.2055 74.8263 90.8572 74.8479 92.7944 74.6863C93.2865 74.6453 93.5086 74.2056 93.2784 73.7687C92.0874 71.5081 89.7708 69.9595 88.28 69.9597C87.9094 69.9598 87.7113 69.9598 87.3343 69.9597L87.3169 69.9597C86.575 69.9597 85.8916 70.3628 85.5328 71.0121Z" fill="#212C38"/>
<path d="M86.6586 71.7656L85.387 74.0356C85.1982 74.3727 85.435 74.7883 85.8214 74.7915C87.4773 74.8049 91.1115 74.8183 92.7846 74.6976C93.2812 74.6617 93.5066 74.2239 93.2618 73.7903C92.2309 71.9641 90.3217 70.7234 89.0831 70.7235L88.437 70.7235C87.6993 70.7235 87.0191 71.1221 86.6586 71.7656Z" fill="#37495E"/>
<path d="M80.8577 74.8005H69.9216C69.4635 74.8005 69.2494 74.2579 69.5971 73.9596C70.8948 72.846 73.3526 70.9229 75.7477 70.0626C75.947 69.9911 76.1564 69.9597 76.3682 69.9597H84.3624C84.7763 69.9597 85.0174 70.427 84.7776 70.7644L82.5193 73.9429C82.137 74.4809 81.5178 74.8005 80.8577 74.8005Z" fill="#212C38"/>
<path d="M80.8389 74.8H73.5568C73.0899 74.8 72.8747 74.2329 73.2313 73.9315C74.2154 73.0995 75.7621 71.8489 77.116 71.0017C77.4167 70.8135 77.7639 70.7235 78.1186 70.7235H83.745C84.1553 70.7235 84.3973 71.1837 84.1648 71.5217L82.5185 73.9165C82.1382 74.4695 81.5101 74.8 80.8389 74.8Z" fill="#37495E"/>
<path fill-rule="evenodd" clip-rule="evenodd" d="M78.1339 76.9463C78.3557 77.4636 78.116 78.0628 77.5987 78.2845L77.1972 77.3477C77.5987 78.2845 77.598 78.2848 77.5973 78.2851L77.5959 78.2857L77.5929 78.2869L77.5865 78.2896C77.582 78.2915 77.5771 78.2935 77.5718 78.2956C77.5611 78.2999 77.5488 78.3047 77.5345 78.3101C77.5061 78.3208 77.4703 78.3336 77.4262 78.3482C77.338 78.3773 77.2161 78.4138 77.0536 78.455C76.7289 78.5373 76.2378 78.6395 75.5228 78.7393C74.0942 78.9386 71.752 79.1312 68.0252 79.1312C65.8275 79.1312 64.6043 78.9409 63.8961 78.6909C63.5373 78.5643 63.2387 78.3978 63.0207 78.1669C62.9079 78.0475 62.818 77.9119 62.7577 77.763C62.728 77.6895 62.707 77.6165 62.6936 77.5455C62.6869 77.5102 62.6822 77.4758 62.6792 77.4427C62.6777 77.4261 62.6766 77.4099 62.6759 77.3941C62.6755 77.3862 62.6752 77.3783 62.6751 77.3706L62.6749 77.3591L62.6748 77.3534C62.6748 77.3506 62.6748 77.3477 63.6939 77.3477H62.6748C62.6748 76.7849 63.1311 76.3286 63.6939 76.3286C64.0324 76.3286 64.3323 76.4936 64.5176 76.7476C64.5338 76.754 64.5526 76.7612 64.5745 76.7689C64.9492 76.9011 65.8916 77.093 68.0252 77.093C71.6869 77.093 73.9308 76.9034 75.2411 76.7206C75.8955 76.6293 76.312 76.5403 76.5527 76.4793C76.6728 76.4489 76.748 76.4257 76.7862 76.413C76.8008 76.4082 76.81 76.4049 76.814 76.4034C77.3271 76.195 77.9148 76.435 78.1339 76.9463Z" fill="white"/>
<path d="M65.1823 79.3088L64.902 77.9075C64.8705 77.7499 64.9911 77.6028 65.1518 77.6028H70.9893C71.1928 77.6028 71.3141 77.8296 71.2013 77.9989L70.2671 79.4002C70.2198 79.4711 70.1403 79.5136 70.0551 79.5136H65.4321C65.3106 79.5136 65.2061 79.4279 65.1823 79.3088Z" fill="#37495E"/>
<path d="M0 12C0 5.37258 5.37258 0 12 0C18.6274 0 24 5.37258 24 12C24 18.6274 18.6274 24 12 24C5.37258 24 0 18.6274 0 12Z" fill="#0062FF"/>
<path d="M13.8302 6.81818V17H11.6775V8.86151H11.6178L9.28613 10.3232V8.41406L11.8067 6.81818H13.8302Z" fill="white"/>
<defs>
<radialGradient id="paint0_radial_14701_35842" cx="0" cy="0" r="1" gradientTransform="matrix(-0.171369 27.5949 51.7173 0.291575 75.5852 55.7342)" gradientUnits="userSpaceOnUse">
<stop offset="0.69" stop-color="#B7E1FF"/>
<stop offset="0.796183" stop-color="#B7E1FF"/>
<stop offset="0.845111" stop-color="#7EC9FF"/>
</radialGradient>
<linearGradient id="paint1_linear_14701_35842" x1="85.6951" y1="71.395" x2="85.7881" y2="79.7675" gradientUnits="userSpaceOnUse">
<stop stop-color="#B7E1FF"/>
<stop offset="1" stop-color="#7EC9FF"/>
</linearGradient>
<linearGradient id="paint2_linear_14701_35842" x1="87.0996" y1="76.1809" x2="87.2618" y2="80.4055" gradientUnits="userSpaceOnUse">
<stop stop-color="#409CFF"/>
<stop offset="1" stop-color="#7EC9FF"/>
</linearGradient>
<linearGradient id="paint3_linear_14701_35842" x1="93.8862" y1="79.386" x2="93.8862" y2="85.2459" gradientUnits="userSpaceOnUse">
<stop stop-color="#DADBDF"/>
<stop offset="1" stop-color="#A5A5A5"/>
</linearGradient>
<linearGradient id="paint4_linear_14701_35842" x1="81.9101" y1="79.1321" x2="81.9101" y2="85.5016" gradientUnits="userSpaceOnUse">
<stop stop-color="#DADBDF"/>
<stop offset="1" stop-color="#A5A5A5"/>
</linearGradient>
</defs>
</svg>
