<svg width="120" height="120" viewBox="0 0 120 120" fill="none" xmlns="http://www.w3.org/2000/svg">
<g clip-path="url(#clip0_14701_35849)">
<path d="M42 32C42 29.349 44.149 27.2 46.8 27.2H69.2C71.851 27.2 74 29.349 74 32V80C74 82.6509 71.851 84.8 69.2 84.8H46.8C44.149 84.8 42 82.6509 42 80V32Z" fill="#3878F6"/>
<path d="M43.5996 35.2C43.5996 33.4327 45.0323 32 46.7996 32H69.1996C70.9669 32 72.3996 33.4327 72.3996 35.2V77.6C72.3996 79.3673 70.9669 80.8 69.1996 80.8H46.7996C45.0323 80.8 43.5996 79.3673 43.5996 77.6V35.2Z" fill="#F4FAFF"/>
<path d="M53.2002 29.6C53.2002 29.1582 53.5584 28.8 54.0002 28.8H61.2002C61.642 28.8 62.0002 29.1582 62.0002 29.6C62.0002 30.0419 61.642 30.4 61.2002 30.4H54.0002C53.5584 30.4 53.2002 30.0419 53.2002 29.6Z" fill="#2D5FAA"/>
<path d="M47.6277 32H69.1996C70.9669 32 72.3996 33.4327 72.3996 35.2V75.9948C58.6665 75.6386 47.5996 56.9733 47.5996 34C47.5996 33.3295 47.609 32.6628 47.6277 32Z" fill="#E1F2FF"/>
<path d="M46.7998 54C46.7998 47.8145 51.8142 42.8 57.9998 42.8C64.1854 42.8 69.1998 47.8145 69.1998 54C69.1998 60.1856 64.1854 65.2 57.9998 65.2C51.8142 65.2 46.7998 60.1856 46.7998 54Z" fill="#00B261"/>
<path d="M46.7998 54C46.7998 47.8145 51.8142 42.8 57.9998 42.8C64.1854 42.8 69.1998 47.8145 69.1998 54C69.1998 60.1856 64.1854 65.2 57.9998 65.2C51.8142 65.2 46.7998 60.1856 46.7998 54Z" fill="#00B261"/>
<path fill-rule="evenodd" clip-rule="evenodd" d="M63.1898 50.2101C63.7365 50.7568 63.7365 51.6433 63.1898 52.19L57.5898 57.79C57.043 58.3367 56.1566 58.3367 55.6099 57.79L52.4599 54.64C51.9131 54.0933 51.9131 53.2068 52.4599 52.6601C53.0066 52.1134 53.893 52.1134 54.4398 52.6601L56.5998 54.8201L61.2099 50.2101C61.7566 49.6634 62.643 49.6634 63.1898 50.2101Z" fill="white"/>
<path d="M68.8773 81.5563C76.4398 80.3126 81.0838 83.1804 82.8156 85.6669C86.0967 90.3779 83.1575 97.3774 73.9543 93.1655C72.3016 92.4091 68.0275 89.3803 66.9636 88.7028C65.8997 88.0254 64.7626 87.1599 63.9352 86.1085C63.5793 85.6601 63.2629 85.1789 62.9937 84.676L58.7959 75.7846C58.7227 75.6538 58.7763 75.4843 58.9095 75.4216C59.7648 75.0082 60.766 74.9938 61.6466 75.3797L61.8495 75.4664C62.3538 75.6885 62.7957 76.0339 63.1327 76.4785L65.6716 80.1156L68.8773 81.5563Z" fill="#F4C18F"/>
<path d="M71.2819 81.1734C70.0015 81.5165 68.6855 80.7567 68.3425 79.4764L63.2178 60.3511C62.8748 59.0707 63.6346 57.7547 64.9149 57.4117C66.1952 57.0686 67.5112 57.8284 67.8543 59.1087L72.9789 78.2341C73.322 79.5144 72.5622 80.8304 71.2819 81.1734Z" fill="#F4C18F"/>
<path d="M77.1605 84.5677C75.8802 84.9107 74.5642 84.1509 74.2212 82.8706L70.96 70.6999C70.617 69.4196 71.3768 68.1036 72.6571 67.7605C73.9374 67.4175 75.2534 68.1773 75.5965 69.4576L78.8576 81.6283C79.2007 82.9086 78.4409 84.2246 77.1605 84.5677Z" fill="#F4C18F"/>
<path d="M82.729 86.8026C81.4487 87.1457 80.1326 86.3859 79.7896 85.1056L75.9073 70.6167C75.5642 69.3364 76.324 68.0204 77.6044 67.6773C78.8847 67.3342 80.2007 68.094 80.5437 69.3744L84.426 83.8632C84.7691 85.1436 84.0093 86.4596 82.729 86.8026Z" fill="#F4C18F"/>
<path d="M85.542 81.0788C84.2616 81.4219 82.9456 80.6617 82.603 79.3812L80.5946 71.8624C80.2548 70.5922 81.0018 69.2855 82.2687 68.9339C83.5521 68.5776 84.8798 69.3362 85.2245 70.6228L87.2387 78.14C87.5817 79.4201 86.8221 80.7358 85.542 81.0788Z" fill="#F4C18F"/>
<path d="M70.5163 87.5902L66.3232 71.9423L85.2011 70.5306L88.4823 82.7762L70.5163 87.5902Z" fill="#F4C18F"/>
<path d="M88.5598 83.0659C89.8891 88.0272 86.9449 93.1267 81.9837 94.4561C77.0224 95.7854 71.9229 92.8412 70.5935 87.88C69.2642 82.9187 72.2084 77.8192 77.1696 76.4898C82.1309 75.1605 87.2304 78.1047 88.5598 83.0659Z" fill="#F4C18F"/>
</g>
<path d="M0 12C0 5.37258 5.37258 0 12 0C18.6274 0 24 5.37258 24 12C24 18.6274 18.6274 24 12 24C5.37258 24 0 18.6274 0 12Z" fill="#0062FF"/>
<path d="M8.4161 17V15.4489L12.0404 12.093C12.3486 11.7947 12.6072 11.5263 12.816 11.2876C13.0281 11.049 13.1888 10.8153 13.2982 10.5866C13.4076 10.3546 13.4623 10.1044 13.4623 9.83594C13.4623 9.53764 13.3943 9.28078 13.2584 9.06534C13.1225 8.84659 12.9369 8.67921 12.7016 8.56321C12.4663 8.44389 12.1995 8.38423 11.9012 8.38423C11.5896 8.38423 11.3179 8.44721 11.0858 8.57315C10.8538 8.6991 10.6749 8.87973 10.5489 9.11506C10.423 9.35038 10.36 9.63044 10.36 9.95526H8.31667C8.31667 9.28906 8.46748 8.7107 8.76909 8.22017C9.0707 7.72964 9.49328 7.35014 10.0368 7.08168C10.5804 6.81321 11.2068 6.67898 11.9161 6.67898C12.6453 6.67898 13.28 6.80824 13.8202 7.06676C14.3638 7.32197 14.7864 7.67661 15.088 8.13068C15.3896 8.58475 15.5404 9.10511 15.5404 9.69176C15.5404 10.0762 15.4642 10.4557 15.3117 10.8303C15.1626 11.2048 14.8957 11.6207 14.5113 12.0781C14.1268 12.5322 13.5849 13.0774 12.8856 13.7138L11.3991 15.1705V15.2401H15.6746V17H8.4161Z" fill="white"/>
<defs>
<clipPath id="clip0_14701_35849">
<rect width="80" height="80" fill="white" transform="translate(20 20)"/>
</clipPath>
</defs>
</svg>
