<svg width="28" height="28" viewBox="0 0 28 28" fill="none" xmlns="http://www.w3.org/2000/svg">
<path d="M2.7998 14C2.7998 7.81446 7.81422 2.80005 13.9998 2.80005C20.1854 2.80005 25.1998 7.81446 25.1998 14C25.1998 20.1856 20.1854 25.2001 13.9998 25.2001C7.81422 25.2001 2.7998 20.1856 2.7998 14Z" fill="#00B261"/>
<path d="M2.7998 14C2.7998 7.81446 7.81422 2.80005 13.9998 2.80005C20.1854 2.80005 25.1998 7.81446 25.1998 14C25.1998 20.1856 20.1854 25.2001 13.9998 25.2001C7.81422 25.2001 2.7998 20.1856 2.7998 14Z" fill="#00B261"/>
<path fill-rule="evenodd" clip-rule="evenodd" d="M19.1898 10.2101C19.7365 10.7568 19.7365 11.6433 19.1898 12.19L13.5898 17.79C13.043 18.3367 12.1566 18.3367 11.6099 17.79L8.45986 14.64C7.91312 14.0933 7.91312 13.2068 8.45986 12.6601C9.00659 12.1134 9.89302 12.1134 10.4398 12.6601L12.5998 14.8201L17.2099 10.2101C17.7566 9.66337 18.643 9.66337 19.1898 10.2101Z" fill="white"/>
</svg>
