<svg width="169" height="38" viewBox="0 0 169 38" fill="none" xmlns="http://www.w3.org/2000/svg">
<rect x="20.7773" y="21.1482" width="4.66667" height="12.963" rx="2.33333" fill="white"/>
<rect x="10.666" y="9.22217" width="4.66667" height="16.5926" rx="2.33333" fill="white"/>
<rect x="30.8887" y="9.22217" width="4.66667" height="16.5926" rx="2.33333" fill="white"/>
<path d="M19.2207 15.1851V19.5925C19.2207 21.7402 20.9618 23.4814 23.1096 23.4814V23.4814C25.2574 23.4814 26.9985 21.7402 26.9985 19.5925V15.1851" stroke="white" stroke-width="4.66667" stroke-linecap="round"/>
<path d="M43.3337 23.4814C42.789 23.4814 42.2495 23.3741 41.7463 23.1656C41.243 22.9571 40.7857 22.6516 40.4005 22.2664C40.0153 21.8812 39.7098 21.4239 39.5013 20.9206C39.2928 20.4174 39.1855 19.8779 39.1855 19.3332C39.1855 18.7885 39.2928 18.2491 39.5013 17.7458C39.7098 17.2425 40.0153 16.7852 40.4005 16.4C40.7857 16.0148 41.243 15.7093 41.7463 15.5008C42.2495 15.2924 42.789 15.1851 43.3337 15.1851C43.8784 15.1851 44.4178 15.2924 44.9211 15.5008C45.4244 15.7093 45.8817 16.0148 46.2669 16.4C46.6521 16.7852 46.9576 17.2425 47.1661 17.7458C47.3745 18.2491 47.4818 18.7885 47.4818 19.3332C47.4818 19.878 47.3745 20.4174 47.1661 20.9206C46.9576 21.4239 46.6521 21.8812 46.2669 22.2664C45.8817 22.6516 45.4244 22.9571 44.9211 23.1656C44.4178 23.3741 43.8784 23.4814 43.3337 23.4814L43.3337 23.4814Z" stroke="white" stroke-width="4.66667" stroke-linecap="round"/>
<path d="M55.8329 18.3777C55.8329 17.0349 56.1327 15.8355 56.7324 14.7795C57.3452 13.7105 58.173 12.8826 59.216 12.2959C60.272 11.6962 61.4518 11.3964 62.7555 11.3964C64.2809 11.3964 65.6172 11.7875 66.7644 12.5697C67.9117 13.3519 68.7135 14.434 69.1698 15.8159H66.0213C65.7084 15.1641 65.2652 14.6752 64.6915 14.3493C64.131 14.0234 63.4791 13.8604 62.736 13.8604C61.9407 13.8604 61.2302 14.0494 60.6044 14.4275C59.9917 14.7925 59.5093 15.314 59.1573 15.9919C58.8184 16.6699 58.6489 17.4651 58.6489 18.3777C58.6489 19.2773 58.8184 20.0725 59.1573 20.7635C59.5093 21.4414 59.9917 21.9694 60.6044 22.3475C61.2302 22.7125 61.9407 22.8951 62.736 22.8951C63.4791 22.8951 64.131 22.7321 64.6915 22.4062C65.2652 22.0672 65.7084 21.5718 66.0213 20.9199H69.1698C68.7135 22.3149 67.9117 23.4035 66.7644 24.1857C65.6302 24.9549 64.2939 25.3395 62.7555 25.3395C61.4518 25.3395 60.272 25.0462 59.216 24.4595C58.173 23.8598 57.3452 23.0319 56.7324 21.9759C56.1327 20.9199 55.8329 19.7205 55.8329 18.3777ZM76.1233 25.3982C75.0803 25.3982 74.1417 25.17 73.3073 24.7137C72.4729 24.2444 71.8146 23.586 71.3322 22.7386C70.8629 21.8912 70.6282 20.9134 70.6282 19.8053C70.6282 18.6971 70.8694 17.7194 71.3517 16.8719C71.8471 16.0245 72.5186 15.3727 73.366 14.9164C74.2134 14.4471 75.1586 14.2124 76.2015 14.2124C77.2445 14.2124 78.1897 14.4471 79.0371 14.9164C79.8845 15.3727 80.5494 16.0245 81.0317 16.8719C81.5272 17.7194 81.7749 18.6971 81.7749 19.8053C81.7749 20.9134 81.5206 21.8912 81.0122 22.7386C80.5168 23.586 79.8389 24.2444 78.9784 24.7137C78.131 25.17 77.1793 25.3982 76.1233 25.3982ZM76.1233 23.0124C76.6187 23.0124 77.0815 22.8951 77.5117 22.6604C77.955 22.4127 78.307 22.0476 78.5677 21.5653C78.8285 21.0829 78.9589 20.4962 78.9589 19.8053C78.9589 18.7754 78.6851 17.9866 78.1375 17.4391C77.603 16.8785 76.9446 16.5982 76.1624 16.5982C75.3802 16.5982 74.7218 16.8785 74.1873 17.4391C73.6658 17.9866 73.4051 18.7754 73.4051 19.8053C73.4051 20.8352 73.6593 21.6305 74.1677 22.1911C74.6892 22.7386 75.3411 23.0124 76.1233 23.0124ZM89.5911 14.2319C90.8818 14.2319 91.9247 14.6426 92.72 15.4639C93.5153 16.2722 93.9129 17.4065 93.9129 18.8666V25.2222H91.1751V19.2382C91.1751 18.3777 90.96 17.7194 90.5298 17.2631C90.0996 16.7937 89.5129 16.5591 88.7698 16.5591C88.0136 16.5591 87.4139 16.7937 86.9707 17.2631C86.5405 17.7194 86.3253 18.3777 86.3253 19.2382V25.2222H83.5876V14.3884H86.3253V15.7377C86.6904 15.2684 87.1532 14.9034 87.7138 14.6426C88.2874 14.3688 88.9132 14.2319 89.5911 14.2319ZM95.6168 19.8053C95.6168 18.6841 95.845 17.7063 96.3013 16.8719C96.7576 16.0245 97.3899 15.3727 98.1982 14.9164C99.0065 14.4471 99.9321 14.2124 100.975 14.2124C102.318 14.2124 103.426 14.5514 104.299 15.2293C105.186 15.8942 105.779 16.8328 106.079 18.0453H103.126C102.97 17.5759 102.702 17.2109 102.324 16.9502C101.959 16.6764 101.503 16.5395 100.955 16.5395C100.173 16.5395 99.554 16.8263 99.0977 17.3999C98.6414 17.9605 98.4133 18.7623 98.4133 19.8053C98.4133 20.8352 98.6414 21.637 99.0977 22.2106C99.554 22.7712 100.173 23.0515 100.955 23.0515C102.064 23.0515 102.787 22.5561 103.126 21.5653H106.079C105.779 22.7386 105.186 23.6708 104.299 24.3617C103.413 25.0527 102.305 25.3982 100.975 25.3982C99.9321 25.3982 99.0065 25.17 98.1982 24.7137C97.3899 24.2444 96.7576 23.5925 96.3013 22.7582C95.845 21.9108 95.6168 20.9265 95.6168 19.8053ZM109.278 13.0977C108.795 13.0977 108.391 12.9478 108.065 12.6479C107.752 12.3351 107.596 11.9505 107.596 11.4942C107.596 11.0379 107.752 10.6598 108.065 10.3599C108.391 10.0471 108.795 9.89061 109.278 9.89061C109.76 9.89061 110.158 10.0471 110.47 10.3599C110.796 10.6598 110.959 11.0379 110.959 11.4942C110.959 11.9505 110.796 12.3351 110.47 12.6479C110.158 12.9478 109.76 13.0977 109.278 13.0977ZM110.627 14.3884V25.2222H107.889V14.3884H110.627ZM123.207 19.5706C123.207 19.9617 123.181 20.3137 123.129 20.6266H115.209C115.274 21.4088 115.548 22.0216 116.031 22.4648C116.513 22.9081 117.106 23.1297 117.81 23.1297C118.827 23.1297 119.551 22.693 119.981 21.8195H122.934C122.621 22.8625 122.021 23.7229 121.135 24.4008C120.248 25.0657 119.159 25.3982 117.869 25.3982C116.826 25.3982 115.887 25.17 115.053 24.7137C114.231 24.2444 113.586 23.586 113.117 22.7386C112.66 21.8912 112.432 20.9134 112.432 19.8053C112.432 18.6841 112.66 17.6998 113.117 16.8524C113.573 16.005 114.212 15.3531 115.033 14.8968C115.855 14.4405 116.8 14.2124 117.869 14.2124C118.899 14.2124 119.818 14.434 120.626 14.8773C121.447 15.3205 122.08 15.9528 122.523 16.7742C122.979 17.5825 123.207 18.5146 123.207 19.5706ZM120.372 18.7884C120.359 18.0844 120.105 17.5238 119.609 17.1066C119.114 16.6764 118.508 16.4613 117.791 16.4613C117.113 16.4613 116.539 16.6699 116.07 17.0871C115.613 17.4912 115.333 18.0583 115.229 18.7884H120.372ZM127.748 16.0702C128.1 15.4965 128.556 15.0468 129.117 14.7208C129.69 14.3949 130.342 14.2319 131.072 14.2319V17.1066H130.349C129.488 17.1066 128.837 17.3087 128.393 17.7128C127.963 18.117 127.748 18.821 127.748 19.8248V25.2222H125.01V14.3884H127.748V16.0702ZM136.964 14.2124C137.773 14.2124 138.483 14.3754 139.096 14.7013C139.709 15.0142 140.191 15.4248 140.543 15.9333V14.3884H143.3V25.3004C143.3 26.3042 143.098 27.1973 142.694 27.9795C142.29 28.7748 141.684 29.4005 140.876 29.8568C140.067 30.3262 139.089 30.5608 137.942 30.5608C136.404 30.5608 135.139 30.2023 134.148 29.4853C133.171 28.7682 132.617 27.7905 132.486 26.5519H135.204C135.348 27.0474 135.654 27.4385 136.124 27.7253C136.606 28.0251 137.186 28.1751 137.864 28.1751C138.659 28.1751 139.305 27.9339 139.8 27.4515C140.295 26.9822 140.543 26.2651 140.543 25.3004V23.6186C140.191 24.1271 139.702 24.5508 139.076 24.8897C138.464 25.2287 137.76 25.3982 136.964 25.3982C136.052 25.3982 135.217 25.1635 134.461 24.6942C133.705 24.2248 133.105 23.5665 132.662 22.7191C132.232 21.8586 132.017 20.8743 132.017 19.7662C132.017 18.6711 132.232 17.6998 132.662 16.8524C133.105 16.005 133.699 15.3531 134.442 14.8968C135.198 14.4405 136.039 14.2124 136.964 14.2124ZM140.543 19.8053C140.543 19.1404 140.413 18.5733 140.152 18.1039C139.891 17.6216 139.539 17.2565 139.096 17.0088C138.653 16.7481 138.177 16.6177 137.668 16.6177C137.16 16.6177 136.691 16.7416 136.26 16.9893C135.83 17.237 135.478 17.602 135.204 18.0844C134.944 18.5537 134.813 19.1143 134.813 19.7662C134.813 20.418 134.944 20.9916 135.204 21.4871C135.478 21.9694 135.83 22.341 136.26 22.6017C136.704 22.8625 137.173 22.9928 137.668 22.9928C138.177 22.9928 138.653 22.869 139.096 22.6213C139.539 22.3605 139.891 21.9955 140.152 21.5262C140.413 21.0438 140.543 20.4702 140.543 19.8053ZM155.85 19.5706C155.85 19.9617 155.824 20.3137 155.772 20.6266H147.852C147.917 21.4088 148.191 22.0216 148.673 22.4648C149.155 22.9081 149.749 23.1297 150.453 23.1297C151.469 23.1297 152.193 22.693 152.623 21.8195H155.576C155.263 22.8625 154.664 23.7229 153.777 24.4008C152.891 25.0657 151.802 25.3982 150.511 25.3982C149.468 25.3982 148.53 25.17 147.695 24.7137C146.874 24.2444 146.229 23.586 145.759 22.7386C145.303 21.8912 145.075 20.9134 145.075 19.8053C145.075 18.6841 145.303 17.6998 145.759 16.8524C146.216 16.005 146.854 15.3531 147.676 14.8968C148.497 14.4405 149.442 14.2124 150.511 14.2124C151.541 14.2124 152.46 14.434 153.269 14.8773C154.09 15.3205 154.722 15.9528 155.165 16.7742C155.622 17.5825 155.85 18.5146 155.85 19.5706ZM153.014 18.7884C153.001 18.0844 152.747 17.5238 152.252 17.1066C151.756 16.6764 151.15 16.4613 150.433 16.4613C149.755 16.4613 149.181 16.6699 148.712 17.0871C148.256 17.4912 147.976 18.0583 147.871 18.7884H153.014Z" fill="white"/>
</svg>
